<?xml version="1.0" encoding="utf-8"?>
<!-- Generator: Adobe Illustrator 21.1.0, SVG Export Plug-In . SVG Version: 6.00 Build 0)  -->
<svg version="1.1" id="f925b0b9-bc71-491a-a51e-0715ff181b57"
	 xmlns="http://www.w3.org/2000/svg" xmlns:xlink="http://www.w3.org/1999/xlink" x="0px" y="0px" viewBox="0 0 1066 774"
	 style="enable-background:new 0 0 1066 774;" xml:space="preserve">
<style type="text/css">
	.st0{opacity:0.1;fill:#1781FF;enable-background:new    ;}
	.st1{fill:#1781FF;}
	.st2{fill:#FFFFFF;}
	.st3{fill:#3F3D56;}
	.st4{fill:#2F2E41;}
	.st5{opacity:0.1;}
	.st6{fill:#ECECF3;}
</style>
<title>upgrade</title>
<path class="st0" d="M995.2,369.9c0.6-6.8,0.9-13.6,0.9-20.6c0-108.8-73.8-197.1-164.9-197.1c-29,0-56.3,9-80,24.8
	c-64.5-50-148.6-80.2-240.7-80.2c-149.8,0-278.7,80.1-335.9,194.9c-3.2-0.2-6.4-0.3-9.6-0.3c-91.1,0-165,88.2-165,197
	c0,40,10,77.2,27.1,108.3l0,0c0,97.9,78.4,177.3,175.2,177.3h122l0.5-0.9c7.2-11.6,24.3-14.5,36.3-7.9c3.2,1.7,6.1,4,9.6,4.8
	c14.1,3,23.6-19.7,37.9-17.5c7.2,1.1,12.8,8.5,20,7.8c4.8-0.5,8.4-4.5,12.9-6.2c7.2-2.7,14.5,1.1,19.6,7.2
	c2.9-8.4,2.9-18.4,7.7-26.2c7.2-11.6,24.3-14.5,36.3-7.9c3.2,1.7,6.1,4,9.6,4.8c14.1,3,23.6-19.7,37.9-17.5c7.2,1.1,12.8,8.5,20,7.8
	c4.8-0.5,8.4-4.5,12.9-6.2c11.2-4.3,22.7,7.3,25.5,19c1.1,5.1,1.6,10.4,1.7,15.6c9.7-4.7,17.9-17.9,28.9-16.2
	c7.2,1.1,12.8,8.5,20,7.8c4.8-0.5,8.4-4.5,12.9-6.2c11.2-4.3,22.7,7.3,25.5,19c1.5,6.2,1.6,12.6,1.8,19h202.2
	c76,0,137.6-62.3,137.6-139.2l0,0c15.4-30,24.3-65.3,24.3-103.1C1066,464.7,1038,405.5,995.2,369.9z"/>
<circle class="st1" cx="623" cy="179" r="87"/>
<polygon class="st2" points="595,182.3 622.9,154.4 651,182.3 631.9,182.3 631.9,203.6 614.1,203.6 614.1,182.4 "/>
<path class="st2" d="M737.5,401.2c-3.1-16.1-18.7-26.7-34.9-23.5c-8.9,1.7-16.6,7.5-20.8,15.5c-13.1,1.4-22.5,13.2-21.1,26.2
	c1.3,12.1,11.5,21.2,23.7,21.2h51.7c10.9,0,19.8-8.9,19.9-19.8C756,410.4,747.9,401.8,737.5,401.2z M714.7,412.9V428H702v-15.1
	h-13.5l19.9-19.9l19.9,19.9L714.7,412.9z"/>
<path class="st2" d="M889.5,648.2c-3.1-16.1-18.7-26.7-34.9-23.5c-8.9,1.7-16.6,7.5-20.8,15.5c-13.1,1.4-22.5,13.2-21.1,26.2
	c1.3,12.1,11.5,21.2,23.7,21.2h51.7c10.9,0,19.8-8.9,19.9-19.8C908,657.4,899.9,648.8,889.5,648.2z M866.7,659.9V675H854v-15.1
	h-13.5l19.9-19.9l19.9,19.9L866.7,659.9z"/>
<path class="st2" d="M329.5,470c-4.9-24.9-29.1-41.2-54-36.3c-13.8,2.7-25.6,11.5-32,24c-20.2,2.2-34.8,20.4-32.6,40.6
	c2,18.7,17.8,32.8,36.6,32.8h79.8c16.9-0.1,30.7-13.8,30.7-30.7C358.1,484.3,345.5,470.9,329.5,470z M294.1,488.1v23.3h-19.7v-23.3
	h-20.9l30.7-30.7l30.7,30.7H294.1z"/>
<path class="st2" d="M673,550v-24.3l11.2,11.2l2.8-2.9l-16-16l-16,16l2.8,2.8l11.2-11.1V550H673z"/>
<path class="st2" d="M114,583v-24.3l11.2,11.2l2.8-2.9l-16-16l-16,16l2.8,2.8l11.2-11.1V583H114z"/>
<path class="st2" d="M672,321v-18.2l8.4,8.4l2.1-2.2l-12-12l-12,12l2.1,2.1l8.4-8.3V321H672z"/>
<path class="st2" d="M453,189v-18.2l8.4,8.4l2.1-2.2l-12-12l-12,12l2.1,2.1l8.4-8.3V189H453z"/>
<path class="st2" d="M371,369v-18.2l8.4,8.4l2.1-2.2l-12-12l-12,12l2.1,2.1l8.4-8.3V369H371z"/>
<path class="st2" d="M885,453v-18.2l8.4,8.4l2.1-2.2l-12-12l-12,12l2.1,2.1l8.4-8.3V453H885z"/>
<path class="st2" d="M353,614v-18.2l8.4,8.4l2.1-2.2l-12-12l-12,12l2.1,2.1l8.4-8.3V614H353z"/>
<circle class="st2" cx="789" cy="293" r="6"/>
<circle class="st2" cx="224" cy="277" r="6"/>
<circle class="st2" cx="401" cy="429" r="6"/>
<circle class="st2" cx="925" cy="531" r="3"/>
<circle class="st2" cx="700" cy="614" r="3"/>
<circle class="st2" cx="315" cy="684" r="3"/>
<circle class="st2" cx="96" cy="441" r="3"/>
<circle class="st2" cx="125" cy="377" r="3"/>
<circle class="st2" cx="770" cy="713" r="3"/>
<circle class="st2" cx="215" cy="609" r="3"/>
<circle class="st2" cx="284" cy="334" r="3"/>
<polygon class="st2" points="386.5,227.5 371,227.5 371,212 369,212 369,227.5 353.5,227.5 353.5,229.5 369,229.5 369,245 371,245 
	371,229.5 386.5,229.5 "/>
<polygon class="st2" points="764,513.9 754.6,513.9 754.6,504.5 753.4,504.5 753.4,513.9 744,513.9 744,515.1 753.4,515.1 
	753.4,524.5 754.6,524.5 754.6,515.1 764,515.1 "/>
<polygon class="st2" points="707,688.9 697.6,688.9 697.6,679.5 696.4,679.5 696.4,688.9 687,688.9 687,690.1 696.4,690.1 
	696.4,699.5 697.6,699.5 697.6,690.1 707,690.1 "/>
<polygon class="st2" points="240,666.9 230.6,666.9 230.6,657.5 229.4,657.5 229.4,666.9 220,666.9 220,668.1 229.4,668.1 
	229.4,677.5 230.6,677.5 230.6,668.1 240,668.1 "/>
<polygon class="st2" points="174,490.9 164.6,490.9 164.6,481.5 163.4,481.5 163.4,490.9 154,490.9 154,492.1 163.4,492.1 
	163.4,501.5 164.6,501.5 164.6,492.1 174,492.1 "/>
<polygon class="st3" points="453.5,669.7 453.5,664 450.1,664 450.1,669.6 444.3,686.5 458.9,686.7 "/>
<polygon class="st3" points="468.1,670 468.2,664.2 464.8,664.2 464.7,670 458.7,687.2 473.7,687.4 "/>
<polygon class="st3" points="482.8,670 482.8,664.4 479.4,664.4 479.4,670 473.5,686.8 488.2,687 "/>
<polygon class="st3" points="587.2,671.4 587.2,665.6 583.8,665.6 583.7,671.4 577.7,688.6 592.7,688.8 "/>
<polygon class="st3" points="602.2,671.6 602.3,665.8 598.8,665.8 598.7,671.6 592.7,688.8 607.8,689 "/>
<polygon class="st3" points="617.2,671.8 617.3,666 613.8,666 613.7,671.7 607.8,689 622.8,689.2 "/>
<polygon class="st3" points="519,670.6 519.1,664.8 515.6,664.8 515.5,670.6 509.5,687.8 524.6,688 "/>
<polygon class="st3" points="534,670.8 534.1,665 530.6,665 530.5,670.8 524.6,688 539.6,688.2 "/>
<polygon class="st3" points="549,671 549.1,665.2 545.6,665.2 545.6,670.9 539.6,688.2 554.6,688.4 "/>
<path class="st3" d="M508.8,266.6c-0.2-19.9-23.7-55.2-36.3-55.3s-35.8,34.6-36.5,54.5h-0.6l-4.8,399.8l73.4,0.9L508.8,266.6
	L508.8,266.6z"/>
<path class="st3" d="M642.8,268.2c-0.2-19.9-23.7-55.2-36.3-55.3s-35.8,34.6-36.5,54.5h-0.6l-4.8,399.8l73.4,0.9L642.8,268.2
	L642.8,268.2z"/>
<path class="st4" d="M576.9,80.9c-0.1-29.2-23.4-80.8-36-80.9s-36,50.9-36.8,80h-0.6l-7,586.2l73.4,0.9L576.9,80.9L576.9,80.9z"/>
<polygon class="st1" points="509.1,395.4 537,367.5 565.2,395.4 546,395.4 546,416.7 528.3,416.7 528.3,395.6 "/>
<g class="st5">
	<path d="M574.9,274.9c7.6-17.7,22.4-36.2,31.6-36.1c12,0.1,33.6,31.8,36.1,52l0.3-21.7l0,0c-0.2-19.9-23.7-55.2-36.3-55.3
		c-9.1-0.1-23.6,17.9-31.3,35.4L574.9,274.9z"/>
	<path d="M435.4,291.7h0.6c0.7-19.9,23.8-54.6,36.5-54.5c8.3,0.1,21.1,15.2,29.1,31.2l1.9-162.4h0.6c0.8-29.2,24.1-80.2,36.8-80
		c11.9,0.1,33.4,46.2,35.8,75.9l0.2-20l0,0c-0.1-29.2-23.4-80.8-36-80.9s-36,50.9-36.8,80.1h-0.6l-1.9,162.4
		c-8-16-20.8-31.1-29.1-31.2c-12.6-0.1-35.8,34.6-36.5,54.5h-0.6l-4.8,399.8h0.3L435.4,291.7z"/>
</g>
<path class="st6" d="M540.8,25.4L540.8,25.4c3.8,0,6.9,3.2,6.9,7l-0.2,16.2c0,3.8-3.2,6.9-7,6.8l0,0c-3.8,0-6.9-3.2-6.8-7l0.2-16.2
	C533.9,28.4,537,25.3,540.8,25.4z"/>
</svg>
