<?xml version="1.0" encoding="utf-8"?>
<!-- Generator: Adobe Illustrator 21.1.0, SVG Export Plug-In . SVG Version: 6.00 Build 0)  -->
<svg version="1.1" id="_x33_cd38589-f6b5-4ced-9f2c-9a4b79f01fae"
	 xmlns="http://www.w3.org/2000/svg" xmlns:xlink="http://www.w3.org/1999/xlink" x="0px" y="0px" viewBox="0 0 835.6 660"
	 style="enable-background:new 0 0 835.6 660;" xml:space="preserve">
<style type="text/css">
	.st0{fill:url(#SVGID_1_);}
	.st1{fill:#FFFFFF;}
	.st2{fill:#1781FF;}
	.st3{fill:url(#SVGID_2_);}
	.st4{opacity:0.5;fill:#1781FF;enable-background:new    ;}
	.st5{opacity:0.2;fill:#1781FF;enable-background:new    ;}
	.st6{fill:#69F0AE;}
	.st7{fill:url(#SVGID_3_);}
	.st8{fill:url(#SVGID_4_);}
	.st9{fill:none;}
	.st10{fill:url(#SVGID_5_);}
	.st11{fill:#2196F3;}
	.st12{fill:url(#SVGID_6_);}
	.st13{fill:url(#SVGID_7_);}
	.st14{fill:url(#SVGID_8_);}
	.st15{fill:url(#SVGID_9_);}
	.st16{fill:url(#SVGID_10_);}
	.st17{fill:url(#SVGID_11_);}
	.st18{fill:url(#SVGID_12_);}
	.st19{fill:url(#SVGID_13_);}
	.st20{fill:url(#SVGID_14_);}
	.st21{fill:url(#SVGID_15_);}
	.st22{fill:url(#SVGID_16_);}
	.st23{fill:url(#SVGID_17_);}
</style>
<title>calendar</title>
<linearGradient id="SVGID_1_" gradientUnits="userSpaceOnUse" x1="435.61" y1="133" x2="435.61" y2="662" gradientTransform="matrix(1 0 0 -1 0 662)">
	<stop  offset="0" style="stop-color:#808080;stop-opacity:0.25"/>
	<stop  offset="0.54" style="stop-color:#808080;stop-opacity:0.12"/>
	<stop  offset="1" style="stop-color:#808080;stop-opacity:0.1"/>
</linearGradient>
<rect x="35.6" class="st0" width="800" height="529"/>
<rect x="42.6" y="62.5" class="st1" width="784" height="450.5"/>
<rect x="42.6" y="11" class="st2" width="784" height="51.5"/>
<linearGradient id="SVGID_2_" gradientUnits="userSpaceOnUse" x1="435.61" y1="174" x2="435.61" y2="567" gradientTransform="matrix(1 0 0 -1 0 662)">
	<stop  offset="0" style="stop-color:#808080;stop-opacity:0.25"/>
	<stop  offset="0.54" style="stop-color:#808080;stop-opacity:0.12"/>
	<stop  offset="1" style="stop-color:#808080;stop-opacity:0.1"/>
</linearGradient>
<rect x="53.6" y="95" class="st3" width="764" height="393"/>
<rect x="63.1" y="102" class="st4" width="92" height="73.5"/>
<rect x="156.1" y="102" class="st1" width="92" height="73.5"/>
<rect x="249.1" y="102" class="st5" width="92" height="73.5"/>
<rect x="342.1" y="102" class="st1" width="92" height="73.5"/>
<rect x="435.1" y="102" class="st1" width="92" height="73.5"/>
<rect x="528.1" y="102" class="st4" width="92" height="73.5"/>
<rect x="621.1" y="102" class="st1" width="92" height="73.5"/>
<rect x="714.1" y="102" class="st5" width="92" height="73.5"/>
<rect x="63.1" y="177" class="st5" width="92" height="73.5"/>
<rect x="156.1" y="177" class="st5" width="92" height="73.5"/>
<rect x="249.1" y="177" class="st1" width="92" height="73.5"/>
<rect x="342.1" y="177" class="st4" width="92" height="73.5"/>
<rect x="435.1" y="177" class="st1" width="92" height="73.5"/>
<rect x="528.1" y="177" class="st5" width="92" height="73.5"/>
<rect x="621.1" y="177" class="st4" width="92" height="73.5"/>
<rect x="714.1" y="177" class="st1" width="92" height="73.5"/>
<rect x="63.1" y="251" class="st1" width="92" height="73.5"/>
<rect x="156.1" y="251" class="st1" width="92" height="73.5"/>
<rect x="249.1" y="251" class="st5" width="92" height="73.5"/>
<rect x="342.1" y="251" class="st1" width="92" height="73.5"/>
<rect x="435.1" y="251" class="st5" width="92" height="73.5"/>
<rect x="528.1" y="251" class="st1" width="92" height="73.5"/>
<rect x="621.1" y="251" class="st1" width="92" height="73.5"/>
<rect x="714.1" y="251" class="st5" width="92" height="73.5"/>
<rect x="63.1" y="325" class="st1" width="92" height="73.5"/>
<rect x="156.1" y="325" class="st4" width="92" height="73.5"/>
<rect x="249.1" y="325" class="st4" width="92" height="73.5"/>
<rect x="342.1" y="325" class="st1" width="92" height="73.5"/>
<rect x="435.1" y="325" class="st1" width="92" height="73.5"/>
<rect x="528.1" y="325" class="st4" width="92" height="73.5"/>
<rect x="621.1" y="325" class="st1" width="92" height="73.5"/>
<rect x="714.1" y="325" class="st4" width="92" height="73.5"/>
<rect x="63.1" y="400" class="st4" width="92" height="73.5"/>
<rect x="156.1" y="400" class="st5" width="92" height="73.5"/>
<rect x="249.1" y="400" class="st1" width="92" height="73.5"/>
<rect x="342.1" y="400" class="st4" width="92" height="73.5"/>
<rect x="435.1" y="400" class="st5" width="92" height="73.5"/>
<rect x="528.1" y="400" class="st1" width="92" height="73.5"/>
<rect x="621.1" y="400" class="st5" width="92" height="73.5"/>
<rect x="714.1" y="400" class="st1" width="92" height="73.5"/>
<rect x="70.6" y="258" class="st6" width="28" height="28"/>
<rect x="348.6" y="110" class="st6" width="28" height="28"/>
<rect x="345.6" y="258" class="st6" width="28" height="28"/>
<rect x="440.6" y="329" class="st6" width="28" height="28"/>
<rect x="625.6" y="258" class="st6" width="28" height="28"/>
<linearGradient id="SVGID_3_" gradientUnits="userSpaceOnUse" x1="171.55" y1="1.95" x2="171.55" y2="345.05" gradientTransform="matrix(1 0 0 -1 0 662)">
	<stop  offset="0" style="stop-color:#808080;stop-opacity:0.25"/>
	<stop  offset="0.54" style="stop-color:#808080;stop-opacity:0.12"/>
	<stop  offset="1" style="stop-color:#808080;stop-opacity:0.1"/>
</linearGradient>
<circle class="st7" cx="171.6" cy="488.5" r="171.5"/>
<circle class="st2" cx="171.6" cy="488.5" r="166.9"/>
<circle class="st1" cx="171.6" cy="488.5" r="135.6"/>
<linearGradient id="SVGID_4_" gradientUnits="userSpaceOnUse" x1="171.55" y1="165.39" x2="171.55" y2="181.61" gradientTransform="matrix(1 0 0 -1 0 662)">
	<stop  offset="0" style="stop-color:#808080;stop-opacity:0.25"/>
	<stop  offset="0.54" style="stop-color:#808080;stop-opacity:0.12"/>
	<stop  offset="1" style="stop-color:#808080;stop-opacity:0.1"/>
</linearGradient>
<circle class="st8" cx="171.6" cy="488.5" r="8.1"/>
<line class="st9" x1="216.8" y1="384.2" x2="172.7" y2="488.5"/>
<linearGradient id="SVGID_5_" gradientUnits="userSpaceOnUse" x1="194.61" y1="172.5" x2="194.61" y2="279.5" gradientTransform="matrix(1 0 0 -1 0 662)">
	<stop  offset="0" style="stop-color:#808080;stop-opacity:0.25"/>
	<stop  offset="0.54" style="stop-color:#808080;stop-opacity:0.12"/>
	<stop  offset="1" style="stop-color:#808080;stop-opacity:0.1"/>
</linearGradient>
<polygon class="st10" points="174.6,489.5 169.6,487.8 214.6,382.5 219.6,384.9 "/>
<rect x="138.1" y="434.6" transform="matrix(0.389 -0.9213 0.9213 0.389 -282.9647 445.9895)" class="st11" width="113.2" height="3.5"/>
<line class="st9" x1="172.7" y1="489.7" x2="201.7" y2="543"/>
<linearGradient id="SVGID_6_" gradientUnits="userSpaceOnUse" x1="187.61" y1="117.5" x2="187.61" y2="173.5" gradientTransform="matrix(1 0 0 -1 0 662)">
	<stop  offset="0" style="stop-color:#808080;stop-opacity:0.25"/>
	<stop  offset="0.54" style="stop-color:#808080;stop-opacity:0.12"/>
	<stop  offset="1" style="stop-color:#808080;stop-opacity:0.1"/>
</linearGradient>
<polygon class="st12" points="199.6,544.5 170.6,490.5 174.6,488.5 204.6,541.5 "/>
<rect x="185.4" y="486" transform="matrix(0.8787 -0.4775 0.4775 0.8787 -223.8273 152.0326)" class="st11" width="3.5" height="60.7"/>
<circle class="st2" cx="297.9" cy="492" r="3.5"/>
<linearGradient id="SVGID_7_" gradientUnits="userSpaceOnUse" x1="420.0377" y1="456.1327" x2="420.0377" y2="465.1627" gradientTransform="matrix(0.5 0.866 0.866 -0.5 -546.2402 292.5801)">
	<stop  offset="0" style="stop-color:#808080;stop-opacity:0.25"/>
	<stop  offset="0.54" style="stop-color:#808080;stop-opacity:0.12"/>
	<stop  offset="1" style="stop-color:#808080;stop-opacity:0.1"/>
</linearGradient>
<circle class="st13" cx="62.7" cy="426" r="4.5"/>
<linearGradient id="SVGID_8_" gradientUnits="userSpaceOnUse" x1="246.0687" y1="-17.17" x2="246.0687" y2="-8.14" gradientTransform="matrix(1 0 0 -1 -182.1958 542.0143)">
	<stop  offset="0" style="stop-color:#808080;stop-opacity:0.25"/>
	<stop  offset="0.54" style="stop-color:#808080;stop-opacity:0.12"/>
	<stop  offset="1" style="stop-color:#808080;stop-opacity:0.1"/>
</linearGradient>
<circle class="st14" cx="63.9" cy="554.7" r="4.5"/>
<linearGradient id="SVGID_9_" gradientUnits="userSpaceOnUse" x1="396.4706" y1="194.4727" x2="396.4706" y2="203.5142" gradientTransform="matrix(0.866 0.5 0.5 -0.866 -397.6403 466.0781)">
	<stop  offset="0" style="stop-color:#808080;stop-opacity:0.25"/>
	<stop  offset="0.54" style="stop-color:#808080;stop-opacity:0.12"/>
	<stop  offset="1" style="stop-color:#808080;stop-opacity:0.1"/>
</linearGradient>
<circle class="st15" cx="45.2" cy="492" r="4.5"/>
<linearGradient id="SVGID_10_" gradientUnits="userSpaceOnUse" x1="311.6306" y1="692.5178" x2="311.6306" y2="701.5593" gradientTransform="matrix(0 1 1 0 -588.1957 68.0214)">
	<stop  offset="0" style="stop-color:#808080;stop-opacity:0.25"/>
	<stop  offset="0.54" style="stop-color:#808080;stop-opacity:0.12"/>
	<stop  offset="1" style="stop-color:#808080;stop-opacity:0.1"/>
</linearGradient>
<circle class="st16" cx="108.8" cy="379.7" r="4.5"/>
<linearGradient id="SVGID_11_" gradientUnits="userSpaceOnUse" x1="295.4096" y1="755.1135" x2="295.4096" y2="764.155" gradientTransform="matrix(0 1 1 0 -588.1968 68.0206)">
	<stop  offset="0" style="stop-color:#808080;stop-opacity:0.25"/>
	<stop  offset="0.54" style="stop-color:#808080;stop-opacity:0.12"/>
	<stop  offset="1" style="stop-color:#808080;stop-opacity:0.1"/>
</linearGradient>
<circle class="st17" cx="171.4" cy="363.4" r="4.5"/>
<linearGradient id="SVGID_12_" gradientUnits="userSpaceOnUse" x1="311.6252" y1="817.7072" x2="311.6252" y2="826.7372" gradientTransform="matrix(0 1 1 0 -588.1974 68.0319)">
	<stop  offset="0" style="stop-color:#808080;stop-opacity:0.25"/>
	<stop  offset="0.54" style="stop-color:#808080;stop-opacity:0.12"/>
	<stop  offset="1" style="stop-color:#808080;stop-opacity:0.1"/>
</linearGradient>
<circle class="st18" cx="234" cy="379.7" r="4.5"/>
<linearGradient id="SVGID_13_" gradientUnits="userSpaceOnUse" x1="357.9991" y1="864.0651" x2="357.9991" y2="873.1066" gradientTransform="matrix(0 1 1 0 -588.1913 68.0255)">
	<stop  offset="0" style="stop-color:#808080;stop-opacity:0.25"/>
	<stop  offset="0.54" style="stop-color:#808080;stop-opacity:0.12"/>
	<stop  offset="1" style="stop-color:#808080;stop-opacity:0.1"/>
</linearGradient>
<circle class="st19" cx="280.4" cy="426" r="4.5"/>
<linearGradient id="SVGID_14_" gradientUnits="userSpaceOnUse" x1="486.6631" y1="862.9126" x2="486.6631" y2="871.9541" gradientTransform="matrix(0 1 1 0 -588.1935 68.0244)">
	<stop  offset="0" style="stop-color:#808080;stop-opacity:0.25"/>
	<stop  offset="0.54" style="stop-color:#808080;stop-opacity:0.12"/>
	<stop  offset="1" style="stop-color:#808080;stop-opacity:0.1"/>
</linearGradient>
<circle class="st20" cx="279.2" cy="554.7" r="4.5"/>
<linearGradient id="SVGID_15_" gradientUnits="userSpaceOnUse" x1="531.8712" y1="815.3898" x2="531.8712" y2="824.4198" gradientTransform="matrix(0 1 1 0 -588.1992 68.0193)">
	<stop  offset="0" style="stop-color:#808080;stop-opacity:0.25"/>
	<stop  offset="0.54" style="stop-color:#808080;stop-opacity:0.12"/>
	<stop  offset="1" style="stop-color:#808080;stop-opacity:0.1"/>
</linearGradient>
<circle class="st21" cx="231.7" cy="599.9" r="4.5"/>
<linearGradient id="SVGID_16_" gradientUnits="userSpaceOnUse" x1="545.7849" y1="755.1108" x2="545.7849" y2="764.1523" gradientTransform="matrix(0 1 1 0 -588.1992 68.0221)">
	<stop  offset="0" style="stop-color:#808080;stop-opacity:0.25"/>
	<stop  offset="0.54" style="stop-color:#808080;stop-opacity:0.12"/>
	<stop  offset="1" style="stop-color:#808080;stop-opacity:0.1"/>
</linearGradient>
<circle class="st22" cx="171.4" cy="613.8" r="4.5"/>
<linearGradient id="SVGID_17_" gradientUnits="userSpaceOnUse" x1="531.8672" y1="694.8368" x2="531.8672" y2="703.8668" gradientTransform="matrix(0 1 1 0 -588.1956 68.0283)">
	<stop  offset="0" style="stop-color:#808080;stop-opacity:0.25"/>
	<stop  offset="0.54" style="stop-color:#808080;stop-opacity:0.12"/>
	<stop  offset="1" style="stop-color:#808080;stop-opacity:0.1"/>
</linearGradient>
<circle class="st23" cx="111.2" cy="599.9" r="4.5"/>
<circle class="st6" cx="171.6" cy="363.3" r="3.5"/>
<ellipse transform="matrix(0.5 -0.866 0.866 0.5 -212.0857 392.8147)" class="st6" cx="234.1" cy="380.1" rx="3.5" ry="3.5"/>
<ellipse transform="matrix(0.866 -0.5 0.5 0.866 -175.4451 197.0417)" class="st6" cx="280" cy="425.9" rx="3.5" ry="3.5"/>
<ellipse transform="matrix(0.5 -0.866 0.866 0.5 -340.7481 519.1669)" class="st6" cx="279.2" cy="554.7" rx="3.5" ry="3.5"/>
<ellipse transform="matrix(0.866 -0.5 0.5 0.866 -268.783 196.194)" class="st6" cx="231.7" cy="599.7" rx="3.5" ry="3.5"/>
<ellipse transform="matrix(0.866 -0.5 0.5 0.866 -175.4479 105.399)" class="st6" cx="109" cy="380.1" rx="3.5" ry="3.5"/>
<ellipse transform="matrix(0.5 -0.866 0.866 0.5 -337.2767 267.6356)" class="st6" cx="63.1" cy="425.9" rx="3.5" ry="3.5"/>
<ellipse transform="matrix(0.866 -0.5 0.5 0.866 -206.1528 214.8236)" class="st6" cx="297.8" cy="492.1" rx="4.5" ry="4.5"/>
<ellipse transform="matrix(0.866 -0.5 0.5 0.866 -268.7815 106.2492)" class="st6" cx="63.9" cy="554.7" rx="3.5" ry="3.5"/>
<ellipse transform="matrix(0.5 -0.866 0.866 0.5 -463.6245 396.2933)" class="st6" cx="111.4" cy="599.7" rx="3.5" ry="3.5"/>
<circle class="st6" cx="45.2" cy="492" r="3.5"/>
<circle class="st6" cx="171.6" cy="613.7" r="3.5"/>
<path class="st5" d="M42.9,501.2c0-74.9,60.8-135.6,135.7-135.6c48.6,0,93.4,26,117.6,68.1c-29.6-68.8-109.4-100.6-178.2-71
	S17.4,472.2,47,541c2,4.7,4.3,9.3,6.9,13.8C46.6,537.9,42.9,519.7,42.9,501.2z"/>
<circle class="st6" cx="171.6" cy="488.5" r="5.8"/>
</svg>
