<?xml version="1.0" encoding="utf-8"?>
<!-- Generator: Adobe Illustrator 21.1.0, SVG Export Plug-In . SVG Version: 6.00 Build 0)  -->
<svg version="1.1" id="Слой_1" xmlns="http://www.w3.org/2000/svg" xmlns:xlink="http://www.w3.org/1999/xlink" x="0px" y="0px"
	 viewBox="0 0 108 108" style="enable-background:new 0 0 108 108;" xml:space="preserve">
<style type="text/css">
	.st0{fill:#8B99E0;}
	.st1{fill:#DADEF4;}
	.st2{fill:#3C4F58;}
	.st3{fill:#1671D5;}
</style>
<g>
	<g>
		<path class="st0" d="M68.4,61.4c0,0,22.9-0.5,35.1-4.2c0,0,1.8-1.3,2.8,1.5c1,2.8-12.8,9.7-39.7,11.2L68.4,61.4z"/>
		<circle class="st1" cx="86" cy="71.3" r="7.2"/>
		<circle class="st2" cx="86" cy="71.3" r="4.8"/>
	</g>
	<g>
		<path class="st0" d="M39.6,61.4c0,0-22.9-0.5-35.1-4.2c0,0-1.8-1.3-2.8,1.5c-1,2.8,12.8,9.7,39.7,11.2L39.6,61.4z"/>
		<circle class="st1" cx="22" cy="71.3" r="7.2"/>
		<circle class="st2" cx="22" cy="71.3" r="4.8"/>
	</g>
	<path class="st0" d="M56.2,31.2c0-1.2-1-2.2-2.2-2.2c-1.2,0-2.2,1-2.2,2.2l-2.1,26.8l4.3-1.6l4.3,1.6L56.2,31.2z"/>
	<path class="st0" d="M75.9,56.5H32.2c-1.1,0-1.9-0.9-1.9-1.9v0c0-1.1,0.9-1.9,1.9-1.9h43.7c1.1,0,1.9,0.9,1.9,1.9v0
		C77.8,55.7,76.9,56.5,75.9,56.5z"/>
	<g>
		<path class="st3" d="M42.2,62.6l-4-3.1c-0.6,1.7-0.9,3.4-0.9,5.3c0,6.1,3.4,11.5,8.3,14.3h16.2c5-2.8,8.3-8.2,8.3-14.3
			c0-1.8-0.3-3.6-0.9-5.3l-4,3.1C58.9,67.5,48.6,67.5,42.2,62.6z"/>
		<path class="st1" d="M53.7,48.3c-7.2,0-13.4,4.7-15.6,11.2l4,3.1c6.4,4.9,16.7,4.9,23.1,0l4-3.1C67.1,52.9,61,48.3,53.7,48.3z"/>
	</g>
	<g>
		<g>
			<path class="st2" d="M55.8,54.6v4.5h8.8c0,0-0.3-4.5-5.2-4.5H55.8z"/>
			<path class="st2" d="M51.7,54.6v4.5h-8.8c0,0,0.3-4.5,5.2-4.5H51.7z"/>
		</g>
	</g>
</g>
</svg>
