<?xml version="1.0" encoding="utf-8"?>
<!-- Generator: Adobe Illustrator 21.1.0, SVG Export Plug-In . SVG Version: 6.00 Build 0)  -->
<svg version="1.1" id="Слой_1" xmlns="http://www.w3.org/2000/svg" xmlns:xlink="http://www.w3.org/1999/xlink" x="0px" y="0px"
	 viewBox="0 0 108 108" style="enable-background:new 0 0 108 108;" xml:space="preserve">
<style type="text/css">
	.st0{fill:#465B65;}
	.st1{fill:#242F35;}
	.st2{fill:#CDDC39;}
	.st3{fill:#C4CAE9;}
	.st4{fill:#DFDFDF;}
	.st5{fill:#FE1744;}
	.st6{fill:#3F51B5;}
</style>
<g>
	<g>
		<g>
			<path class="st0" d="M93.1,48.7c0-9.7-7.9-17.6-17.6-17.6h-43c-9.7,0-17.6,7.9-17.6,17.6v47.6h78.3V48.7z"/>
		</g>
	</g>
	<rect x="25.5" y="42.6" class="st1" width="57" height="9.3"/>
	<rect x="25.5" y="57.8" class="st2" width="57" height="13.8"/>
	<polygon class="st3" points="30,46.7 30,11.7 38.3,15.9 45,11.7 53.8,15.7 61,11.7 69.3,15.9 78,11.7 78,46.7 	"/>
	<rect x="25.5" y="78.2" class="st4" width="10.9" height="10.9"/>
	<rect x="40.3" y="78.2" class="st4" width="10.9" height="10.9"/>
	<rect x="56.8" y="78.2" class="st4" width="10.9" height="10.9"/>
	<rect x="71.6" y="78.2" class="st5" width="10.9" height="10.9"/>
	<rect x="34.4" y="25.5" class="st6" width="21.3" height="3.8"/>
	<rect x="67.5" y="25.5" class="st6" width="6.1" height="3.8"/>
	<rect x="67.5" y="35.2" class="st6" width="6.1" height="3.8"/>
	<rect x="34.4" y="35.2" class="st6" width="15" height="3.8"/>
</g>
</svg>
