<?xml version="1.0" encoding="utf-8"?>
<!-- Generator: Adobe Illustrator 21.1.0, SVG Export Plug-In . SVG Version: 6.00 Build 0)  -->
<svg version="1.1" id="Слой_1" xmlns="http://www.w3.org/2000/svg" xmlns:xlink="http://www.w3.org/1999/xlink" x="0px" y="0px"
	 viewBox="0 0 108 108" style="enable-background:new 0 0 108 108;" xml:space="preserve">
<style type="text/css">
	.st0{fill:#AAC4CF;}
	.st1{fill:#D1DEE4;}
	.st2{fill:#243E4D;}
	.st3{fill:#DCF3FE;}
	.st4{fill:#283941;}
</style>
<g>
	<path class="st0" d="M51.8,73.8h-7.6h-7.6c0,10.8-6.5,12-6.5,12h14.1h14.1C58.3,85.8,51.8,84.7,51.8,73.8z"/>
	<g>
		<path class="st1" d="M5.7,70c0,3.3,2.6,5.9,5.9,5.9h65.2c3.3,0,5.9-2.6,5.9-5.9v-3.5h-77V70z"/>
		<path class="st2" d="M76.8,18.9H11.6c-3.3,0-5.9,2.6-5.9,5.9v41.7h77V24.8C82.7,21.6,80.1,18.9,76.8,18.9z"/>
	</g>
	<rect x="9.1" y="22.2" class="st3" width="70.2" height="40.9"/>
	<circle class="st2" cx="44.2" cy="71.2" r="1.9"/>
	<rect x="30.1" y="85.8" class="st1" width="28.2" height="3.3"/>
	<g>
		<path class="st4" d="M97,44H73.5c-2.9,0-5.3,2.4-5.3,5.3v34.5c0,2.9,2.4,5.3,5.3,5.3H97c2.9,0,5.3-2.4,5.3-5.3V49.2
			C102.3,46.3,99.9,44,97,44z M89.8,86.5h-9v-2h9V86.5z M99.5,78.6c0,1.9-1.5,3.4-3.4,3.4H74.4c-1.9,0-3.4-1.5-3.4-3.4V50.2
			c0-1.9,1.5-3.4,3.4-3.4h21.8c1.9,0,3.4,1.5,3.4,3.4V78.6z"/>
		<path class="st3" d="M96.1,46.8H74.4c-1.9,0-3.4,1.5-3.4,3.4v28.4c0,1.9,1.5,3.4,3.4,3.4h21.8c1.9,0,3.4-1.5,3.4-3.4V50.2
			C99.5,48.4,98,46.8,96.1,46.8z"/>
		<rect x="80.8" y="84.5" class="st3" width="9" height="2"/>
	</g>
</g>
</svg>
