<?xml version="1.0" encoding="utf-8"?>
<!-- Generator: Adobe Illustrator 22.0.1, SVG Export Plug-In . SVG Version: 6.00 Build 0)  -->
<svg version="1.1" id="Слой_1" xmlns="http://www.w3.org/2000/svg" xmlns:xlink="http://www.w3.org/1999/xlink" x="0px" y="0px"
	 viewBox="0 0 200 200" style="enable-background:new 0 0 200 200;" xml:space="preserve">
<style type="text/css">
	.st0{fill:#006F9C;}
</style>
<g>
	<path class="st0" d="M17.4,158.5c0-7.3,6-13.3,13.3-13.3l0,0C23.3,145.2,17.4,151.2,17.4,158.5s6,13.3,13.3,13.3l0,0
		C23.3,171.8,17.4,165.8,17.4,158.5z"/>
	<path class="st0" d="M50.5,158.5c0,10.9-8.9,19.9-19.9,19.9l0,0C41.6,178.4,50.5,169.5,50.5,158.5c0-6.3-3-11.9-7.6-15.6h0
		C47.6,146.6,50.5,152.2,50.5,158.5z"/>
	<path class="st0" d="M30.7,138.7c3.1,0,6,0.7,8.6,2l0,0C36.7,139.4,33.8,138.7,30.7,138.7L30.7,138.7z"/>
	<path class="st0" d="M159.9,135.6l-43-76.3c-1.6,1.5-3.4,2.9-5.3,3.9l40.2,71.3c-15.8-3.3-33.3-5-50.8-5c-17.7,0-35.1,1.8-51,5.1
		l38-71.3c-2-1.1-3.7-2.4-5.3-3.9l-41,77c2.7,1.3,5.1,3.1,7.1,5.3c16.1-3.6,34.1-5.5,52.3-5.5c17.6,0,34.9,1.8,50.6,5.2
		C154,138.8,156.8,136.9,159.9,135.6z"/>
	<path class="st0" d="M43,142.9L43,142.9c-1.1-0.9-2.4-1.7-3.7-2.3l0,0C40.6,141.3,41.8,142,43,142.9z"/>
	<path class="st0" d="M157.5,142.6c-4.9,3.6-8.1,9.4-8.1,15.9c0,10.9,8.9,19.9,19.9,19.9c10.9,0,19.9-8.9,19.9-19.9
		c0-10.9-8.9-19.9-19.9-19.9c-2.4,0-4.8,0.5-7,1.3l2.5,4.5L157.5,142.6z M182.6,158.5c0,7.3-6,13.3-13.3,13.3s-13.3-6-13.3-13.3
		s6-13.3,13.3-13.3S182.6,151.2,182.6,158.5z"/>
	<path class="st0" d="M164.9,144.4l-2.5-4.5c-1.7,0.7-3.4,1.5-4.8,2.6L164.9,144.4z"/>
	<path class="st0" d="M99.8,61.3c10.9,0,19.9-8.9,19.9-19.9s-8.9-19.9-19.9-19.9s-19.9,8.9-19.9,19.9S88.8,61.3,99.8,61.3z
		 M99.8,28.2c7.3,0,13.3,6,13.3,13.3s-6,13.3-13.3,13.3s-13.3-6-13.3-13.3S92.4,28.2,99.8,28.2z"/>
	<path class="st0" d="M50.5,158.5c0-6.3-3-11.9-7.6-15.6l-5.6,1.4l2-3.7c-2.6-1.3-5.5-2-8.6-2c-10.9,0-19.9,8.9-19.9,19.9
		c0,10.9,8.9,19.9,19.9,19.9S50.5,169.5,50.5,158.5z M30.7,171.8L30.7,171.8L30.7,171.8c-7.3,0-13.3-6-13.3-13.3s6-13.3,13.3-13.3
		l0,0l0,0c7.3,0,13.3,6,13.3,13.3S38,171.8,30.7,171.8z"/>
	<path class="st0" d="M43,142.9c-1.1-0.9-2.4-1.7-3.7-2.3l-2,3.7L43,142.9z"/>
</g>
</svg>
