<?xml version="1.0" encoding="utf-8"?>
<!-- Generator: Adobe Illustrator 22.0.1, SVG Export Plug-In . SVG Version: 6.00 Build 0)  -->
<svg version="1.1" id="Слой_1" xmlns="http://www.w3.org/2000/svg" xmlns:xlink="http://www.w3.org/1999/xlink" x="0px" y="0px"
	 viewBox="0 0 200 200" style="enable-background:new 0 0 200 200;" xml:space="preserve">
<style type="text/css">
	.st0{fill:url(#SVGID_1_);}
	.st1{fill:#FFFFFF;}
</style>
<g>
	<radialGradient id="SVGID_1_" cx="67.9149" cy="176.0891" r="154.4954" gradientUnits="userSpaceOnUse">
		<stop  offset="0" style="stop-color:#FDD955"/>
		<stop  offset="0.2463" style="stop-color:#F89832"/>
		<stop  offset="0.3793" style="stop-color:#FD361C"/>
		<stop  offset="0.6981" style="stop-color:#C01278"/>
		<stop  offset="0.6995" style="stop-color:#C01278"/>
		<stop  offset="0.9344" style="stop-color:#644199"/>
		<stop  offset="0.9852" style="stop-color:#504BA0"/>
	</radialGradient>
	<path class="st0" d="M176.6,143c0,18.5-14.9,33.5-33.3,33.5H56.7c-18.4,0-33.3-15-33.3-33.5V57c0-18.5,14.9-33.5,33.3-33.5h86.6
		c18.4,0,33.3,15,33.3,33.5V143z"/>
	<g>
		<path class="st1" d="M123,157.3H77c-18,0-32.7-14.7-32.7-32.7v-49C44.4,57.6,59,43,77,43H123c18,0,32.7,14.7,32.7,32.7v49
			C155.6,142.7,141,157.3,123,157.3z M77,51.4c-13.4,0-24.3,10.9-24.3,24.3v49c0,13.4,10.9,24.3,24.3,24.3H123
			c13.4,0,24.3-10.9,24.3-24.3v-49c0-13.4-10.9-24.3-24.3-24.3H77z"/>
		<path class="st1" d="M100,130.4c-16.8,0-30.4-13.6-30.4-30.4c0-8.3,3.4-16.3,9.3-22c5.8-5.6,13.3-8.6,21.2-8.3
			c9.5,0.3,17.3,3.5,22.7,9.2c5.1,5.5,7.7,12.8,7.5,21.3l0,0c-0.2,8.1-3.4,15.7-9,21.4C115.7,127.2,108.1,130.4,100,130.4z
			 M99.3,79.8c-4.9,0-9.6,1.9-13.2,5.5c-3.9,3.8-6.2,9.2-6.2,14.7c0,11.1,9,20.1,20.1,20.1c11,0,19.9-8.9,20.1-20.3
			c0.3-12.2-7.3-19.7-20.3-20C99.7,79.8,99.5,79.8,99.3,79.8z"/>
		<circle class="st1" cx="131.1" cy="68.8" r="7.1"/>
	</g>
</g>
</svg>
