<?xml version="1.0" encoding="utf-8"?>
<!-- Generator: Adobe Illustrator 22.0.1, SVG Export Plug-In . SVG Version: 6.00 Build 0)  -->
<svg version="1.1" id="Слой_1" xmlns="http://www.w3.org/2000/svg" xmlns:xlink="http://www.w3.org/1999/xlink" x="0px" y="0px"
	 viewBox="0 0 200 200" style="enable-background:new 0 0 200 200;" xml:space="preserve">
<style type="text/css">
	.st0{fill:#59409B;}
</style>
<path class="st0" d="M175.2,93.8c0-41.5-33.8-75.2-75.2-75.2S24.8,52.3,24.8,93.8c0,17.4,5.9,33.4,15.9,46.2l-15.1,15.1v26.4h26.4
	L70.4,163c9.1,3.9,19.1,6.1,29.6,6.1s20.5-2.2,29.6-6.1l18.5,18.5h26.4v-26.4L159.3,140C169.3,127.2,175.2,111.2,175.2,93.8z
	 M55.8,93.8c0-24.4,19.8-44.2,44.2-44.2s44.2,19.8,44.2,44.2S124.4,138,100,138S55.8,118.2,55.8,93.8z"/>
</svg>
