<?xml version="1.0" encoding="utf-8"?>
<!-- Generator: Adobe Illustrator 21.1.0, SVG Export Plug-In . SVG Version: 6.00 Build 0)  -->
<svg version="1.1" id="cb7db7bb-371f-430c-ab8e-9f8547f8cfe6"
	 xmlns="http://www.w3.org/2000/svg" xmlns:xlink="http://www.w3.org/1999/xlink" x="0px" y="0px" viewBox="0 0 1130 868.1"
	 style="enable-background:new 0 0 1130 868.1;" xml:space="preserve">
<style type="text/css">
	.st0{opacity:0.1;fill:#1781FF;enable-background:new    ;}
	.st1{fill:#C8CAD7;}
	.st2{opacity:0.1;enable-background:new    ;}
	.st3{fill:#474157;}
	.st4{fill:#4C4C78;}
	.st5{fill:#FFFFFF;}
	.st6{fill:#EDEDF4;}
	.st7{fill:url(#SVGID_1_);}
	.st8{fill:#65617D;}
	.st9{fill:#A27772;}
	.st10{fill:#FBBEBE;}
	.st11{fill:#FF748E;}
	.st12{opacity:5.000000e-02;enable-background:new    ;}
	.st13{fill:#7C5C5C;}
	.st14{opacity:0.1;}
	.st15{fill:#1781FF;}
	.st16{fill:#FFD037;}
	.st17{fill:#A8A8A8;}
	.st18{opacity:0.2;enable-background:new    ;}
	.st19{fill:url(#SVGID_2_);}
	.st20{fill:#FAFAFA;}
	.st21{fill:#DBDBDB;}
	.st22{fill:url(#SVGID_3_);}
	.st23{opacity:0.8;}
	.st24{fill:url(#SVGID_4_);}
	.st25{fill:#3AD29F;}
	.st26{opacity:0.5;fill:#F55F44;enable-background:new    ;}
</style>
<title>dashboard</title>
<path class="st0" d="M1108.1,197.7c-11.5-22.4-26.7-42.8-44.8-60.4l-621.9-5.2l512-60.8c-33.5-11.2-68.6-17.1-103.9-17.4
	C800.3,20.2,736.9,0.1,667.8,0.1c-62,0-119.3,16.3-166.1,43.9c-39.7-17.3-85-27.1-133.1-27.1c-138.2,0-253.3,80.9-279.1,188.2
	L1108.1,197.7z"/>
<path class="st0" d="M1130,287.6c0-29.4-6.7-58.4-19.4-84.9L32.9,298.4C21.9,315,13.4,333.2,7.6,352.3l333.8,42.1L0,425
	c10.3,121.5,133.4,217.4,283.9,217.4c75.7,0,144.5-24.3,195.5-63.9c51.2,40.4,120.6,65.2,197.2,65.2c113.6,0,211.6-54.7,257.3-133.7
	c91.6-24.6,162.7-86.3,187.1-163.5l-422.1-55.3H1130C1130,289.9,1130,288.8,1130,287.6z"/>
<ellipse class="st0" cx="500" cy="855.2" rx="290" ry="12.9"/>
<path class="st1" d="M672.1,832.4v7.8H440.8v-6.3c39.4-14.6,59.4-58.3,44.9-97.7c-7-18.9-21.3-34.3-39.6-42.7h224.5
	c-38.2,17.5-54.9,62.6-37.5,100.7C640.9,811.3,654.8,824.9,672.1,832.4L672.1,832.4z"/>
<path class="st2" d="M670.5,693.5c-20.9,9.6-36.3,28.1-42,50.4H488.1c-5.7-22.3-21.1-40.8-42-50.4H670.5z"/>
<path class="st1" d="M176,653.6v43.9c0,24.2,17.7,43.9,39.6,43.9H896c21.9,0,39.6-19.7,39.6-43.9v-43.9H176z"/>
<path class="st2" d="M672.1,832.4v7.8H440.8v-6.3c6.3-2.4,12.3-5.6,17.8-9.5h199.2C662.3,827.5,667.1,830.2,672.1,832.4z"/>
<path class="st1" d="M373.9,826.8H739c5.2,0,9.5,4.3,9.5,9.5v4.2c0,5.2-4.3,9.5-9.5,9.5H373.9c-5.2,0-9.5-4.3-9.5-9.5v-4.2
	C364.4,831.1,368.7,826.8,373.9,826.8z"/>
<path class="st3" d="M935.7,172.6c0-21.9-17.8-39.6-39.6-39.6H215.7c-21.9,0-39.6,17.7-39.7,39.6v489.6h759.7V172.6z"/>
<path class="st4" d="M915,190.3V611c0,10.8-8.7,19.5-19.5,19.5c0,0,0,0,0,0H216.3c-10.8,0-19.5-8.7-19.5-19.5c0,0,0,0,0,0V190.3
	c0-10.8,8.7-19.5,19.5-19.5h679.2C906.2,170.8,915,179.5,915,190.3C915,190.3,915,190.3,915,190.3z"/>
<circle class="st5" cx="555.8" cy="151.9" r="9.2"/>
<circle class="st5" cx="555.8" cy="699.4" r="22.6"/>
<polygon class="st4" points="365.5,187.6 365.5,228.1 196.8,228.1 196.8,190.3 197.5,187.6 "/>
<path class="st1" d="M915,190.3H196.8c0-10.8,8.7-19.5,19.5-19.5c0,0,0,0,0,0h679.2C906.2,170.8,915,179.5,915,190.3
	C915,190.3,915,190.3,915,190.3z"/>
<circle class="st6" cx="216.3" cy="180.6" r="4.9"/>
<circle class="st6" cx="230.9" cy="180.6" r="4.9"/>
<circle class="st6" cx="245.5" cy="180.6" r="4.9"/>
<linearGradient id="SVGID_1_" gradientUnits="userSpaceOnUse" x1="340.5149" y1="-4.6642" x2="340.5149" y2="417.598" gradientTransform="matrix(1 0 0 -1 -35 854.05)">
	<stop  offset="0" style="stop-color:#808080;stop-opacity:0.25"/>
	<stop  offset="0.54" style="stop-color:#808080;stop-opacity:0.12"/>
	<stop  offset="1" style="stop-color:#808080;stop-opacity:0.1"/>
</linearGradient>
<path class="st7" d="M368.6,517.2c-15.2-8.8-21-10.9-21-10.9l-0.3-0.2c-1.7-1.3-3-2.9-3.8-4.8c0-0.3,0-0.7,0-1v0.1
	c0.3-4.6,3.5-8.9,6.7-12.5c2.7-3.1,5.3-6.3,8-9.4c0.9-1,1.6-2.1,2.1-3.3c0.2-0.7,0.2-1.3,0.2-2c0-0.3,0-0.5,0-0.8
	c0-2.3-0.1-4.7-0.2-7c-0.1-2-0.6-4.6-2.6-5c-1.1-0.2-2.5,0.2-3-0.8c-0.2-0.4-0.2-0.8-0.1-1.2c0,0,0,0.1,0,0.1c0,0,0-0.1,0-0.1
	c0.4-1.6,0.6-3.2,0.8-4.8c0-0.8-0.1-1.6-0.3-2.4c-1.2-3.4-5.3-4.8-8.9-5.4s-7.6-1.2-9.9-4c-0.6-0.9-1.3-1.8-2-2.7
	c-1-0.9-2.3-1.6-3.7-1.8c-4.5-1.1-9.2-0.7-13.4,1.2c-1.7,0.8-3.5,1.8-5.4,1.7s-3.7-1.5-5.6-1.8c-3.2-0.5-6.2,1.8-7.8,4.5
	c-0.9,1.6-1.4,3.5-1.4,5.4c0,0.1,0,0.2,0,0.3l0,0c0,2,0.7,4,2.1,5.5c1.4,1.4,3.4,2.4,4,4.3c0.2,0.8,0.2,1.6,0.4,2.3
	c0,0.1,0.1,0.2,0.1,0.3l-0.1,0.1c-3.2,4.2-5,9.3-5,14.6c0.1,10.5,6.9,19.8,17,23c0,0.2,0,0.5,0,0.7c0.1,3-1.1,6-3.3,8l-21.6,8.7
	c0,0-13-1.5-17.7,17.5c-0.8,3.2-1,6.4-0.8,9.6c0.2,2.9-0.2,7.9-3.6,14.4c-5.3,10.4-4.1,34.4,6.8,36.8c10.3,2.2,14.3,1.3,14.7,1.2
	v0.4c-0.2,4.5-1.8,43.3-7.7,48c-1.6,1.3-1.3,2.2,0,2.8c0,0,0,0.3,0,0.7c-0.2,2.8-1.1,13.6-5.1,19.8c-4.6,7.1-4,48.1-4,48.1
	l-3.1,24.2c0,0,1.9,14.9,0,17.5c-1.7,2.3-4,57.6-4.5,69.6h-0.2c-1.9,0.1-3.7,1.2-4.7,2.8C257.9,833.4,249,841,249,841
	c-1.9,2.8-9.1,5.4-12.9,6.6c-0.5,0.2-1,0.4-1.5,0.6c-1.4,0.8-2.6,2-3.3,3.4c-0.5,0.9-0.6,1.9-0.3,2.8c1,2.4,21.1,4,26.1,1.7
	c4-1.9,19.8-4.3,26.4-5.3c2.5-0.3,4.4-2.2,4.7-4.7c0.1-0.8-0.1-1.7-0.6-2.3l0,0c-1.3-1.6-1.9-5.8-2.2-8.6c0.5-0.2,1-0.5,1.5-0.9
	c-0.5-8.6,0.7-17.3,3.6-25.4c4.8-12.8,6.3-36.5,5.1-51.9c0,0,14.8-63.6,26.4-69.5l0,0c0.2,0.2,5.8,7.5,6.5,29.9
	c0.7,22.8,9,37.7,9,37.7s-3.6,38.7,0,53.1l-4.8,22.8c-0.2-0.2-0.4-0.3-0.6-0.5c0,0,0.1,0.6,0.3,1.7l-0.1,0.5l0.2,0
	c0.5,2.8,1.3,7.8,1,10.7c-0.2,1.7-0.6,3.9-1,6.2c-0.5,3.5-0.6,6.9,1.2,7.7c3,1.2,20.8,2.9,23.9-1c1.4-1.6,1.7-3.9,0.9-5.9
	c-0.2-0.5-0.5-1-0.9-1.5c0,0-4.7-7.7-3.4-13.2c0.2-1.1,0-2.2-0.6-3.1c0.7-8.6,2.1-17.2,4.2-25.6c3-11.4,9.4-36.4,4.7-52.9l0,0
	c-0.2-0.6-0.4-1.3-0.6-1.9c-2.7-9-3.6-18.4-2.7-27.8c-1.7-8-1.7-16.2,0-24.2c2.9-13.3,4.9-26.3,4.9-26.3s1.6-17.5,0.2-28.3l-0.1-0.7
	l0.8-0.2c0,0-4.1-18.3-5.6-29.9c-0.3-2.8-0.8-6.2-1.3-9.9c1.3-0.2,2.7-0.6,4-1c13.1-4.5,17.2-45.3,17.2-45.3v-12.9
	C379.5,545.8,383.9,526,368.6,517.2z M271.2,832.2l-0.6-0.3l0,0L271.2,832.2z"/>
<path class="st8" d="M360.7,752.6c5.7,16.3-1,42.8-4,54.6c-2,8.5-3.4,17.2-4,26c-6.9,1.2-14,1-20.8-0.5l5-24.3c-3.5-14.4,0-53,0-53
	s-8-14.9-8.7-37.6c-0.7-22.3-6.2-29.5-6.4-29.8l0,0c-11.4,5.9-25.8,69.3-25.8,69.3c1.2,15.4-0.2,39-5,51.8
	c-2.9,8.1-4.1,16.7-3.5,25.3c-1.6,1.4-4,1.6-6.4,1.2c-6.8-1.1-14.8-6.9-14.8-6.9s2.6-69,4.5-71.6s0-17.5,0-17.5l3.1-24.1
	c0,0-0.5-40.9,4-48c3.9-6.1,4.8-16.9,5-19.7c0-0.5,0-0.7,0-0.7l6.8-8.2c0,0,66.2-5,71.1,0c1.2,1.2,2,4,2.4,7.5
	c1.4,10.7-0.2,28.2-0.2,28.2s-2,13-4.8,26.2c-1.7,7.9-1.7,16.2,0,24.1C357.2,734.3,358.1,743.7,360.7,752.6z"/>
<path class="st9" d="M356.6,856.3c-3,3.9-20.3,2.3-23.3,1c-1.8-0.8-1.7-4.1-1.2-7.6c0.3-2.2,0.8-4.5,0.9-6.2
	c0.5-4.3-1.4-12.9-1.4-12.9s3.9,4.1,4.8,0c0.4-1.6,1.7-2.8,3.4-3.2c2-0.6,4.2-0.5,6.1,0.4c3.1,1.3,8.2,4.2,7.3,8
	c-1.3,5.4,3.3,13.1,3.3,13.1c0.4,0.5,0.6,1,0.9,1.5C358.3,852.4,358,854.7,356.6,856.3z"/>
<path class="st2" d="M356.6,856.3c-3,3.9-20.3,2.3-23.3,1c-1.8-0.8-1.7-4.1-1.2-7.6c1.9,0.9,5,1.6,10.3,1.1c1.2-0.1,2.5-0.2,3.7-0.1
	c3.8,0.2,7.5,0.1,11.3-0.2C358.3,852.4,358,854.7,356.6,856.3z"/>
<path class="st2" d="M296,757.4c1.2,15.4-0.2,39-5,51.8c-2.9,8.1-4.1,16.7-3.5,25.3c-1.6,1.4-4,1.6-6.4,1.2
	c1.4-10,7.5-52.9,11.4-86.9c4.4-38.7,25.2-65.2,25.2-65.2l4.1,4.5C310.4,694,296,757.4,296,757.4z"/>
<path class="st10" d="M349.5,509l-2.9,14.2l-14.1,23.8l-17.4-7.5c0,0-23.7-24.8-8.8-28.4c1.8-0.4,3.5-1.1,5-2.2
	c2.9-2.2,3.8-5.4,3.9-8.5c-0.1-3.5-0.9-7-2.4-10.2l30.5-9.6c-1.3,4-2,8.2-2.2,12.4c-0.2,8.3,2.9,12.4,5.4,14.3
	C347.3,508.1,348.3,508.6,349.5,509z"/>
<path class="st2" d="M343.1,480.6c-1.3,4-2,8.2-2.2,12.4c-6.3,7.5-16.6,10.4-25.9,7.4c-0.1-3.5-0.9-7-2.4-10.2L343.1,480.6z"/>
<path class="st10" d="M346.6,476.7c0,13.3-10.8,24.1-24.1,24.1c-13.3,0-24.1-10.8-24.1-24.1s10.8-24.1,24.1-24.1h0
	c13.3,0,24.1,10.7,24.1,24C346.6,476.6,346.6,476.6,346.6,476.7z"/>
<path class="st2" d="M349.5,509l-2.9,14.2l-14.1,23.8l-17.4-7.5c0,0-23.7-24.8-8.8-28.4c1.8-0.4,3.5-1.1,5-2.2
	c-2.7,7.4,8.4,22.8,8.4,22.8c1.3,1.9,4.3,0.7,4.3,0.7c7.1-1.1,20.3-21.6,22.5-25.1C347.3,508.1,348.3,508.6,349.5,509z"/>
<path class="st2" d="M363.1,646.4c-4.2,1-27.4,6.1-36.2,4.8c-9.7-1.4-28.5-2.4-28.5-2.4s-12,0.6-15.7-1c0-0.5,0-0.7,0-0.7l6.8-8.2
	c0,0,66.2-5,71.1,0C362,640.2,362.7,643,363.1,646.4z"/>
<path class="st11" d="M319.6,532.3c0,0-12.5-17.3-7.8-24l-21.1,8.6c0,0-12.7-1.5-17.3,17.4c-0.7,3.1-1,6.4-0.8,9.6
	c0.2,2.8-0.2,7.9-3.5,14.4c-5.2,10.4-4,34.3,6.6,36.6s14.4,1.2,14.4,1.2s-1.4,43.3-7.6,48.2s15.7,3.8,15.7,3.8s18.8,1,28.5,2.4
	s36.9-5,36.9-5s-4-18.2-5.4-29.8s-4.7-36.2-4.7-36.2l24.1-32.7c0,0,4.3-19.7-10.6-28.5s-20.5-10.9-20.5-10.9s-15,24.4-22.8,25.5
	C323.9,533,320.9,534.3,319.6,532.3z"/>
<path class="st2" d="M291.9,539.2c0,0-0.2,7.8,1.2,10.9s6.6,20.1,6.6,20.1h-11.8c0,0,6.4-6.8,5.9-10.2S291.9,539.2,291.9,539.2z"/>
<path class="st10" d="M326.9,598c0,0-26.1-6.4-28.5-11.8s-9.1-17.6-9.1-17.6l2.8-3.7l12.7,10c0,0,15.1,12,22.2,13.2
	S326.9,598,326.9,598z"/>
<path class="st12" d="M326.9,598c0,0-26.1-6.4-28.5-11.8s-9.1-17.6-9.1-17.6l2.8-3.7l12.7,10c0,0,15.1,12,22.2,13.2
	S326.9,598,326.9,598z"/>
<path class="st10" d="M349.5,567.3v14.2h-2.3c-11.2,0-22.3,2.9-32.1,8.3l-4.3,2.4l-1.1,0.6l-7.3-16.5l6.9-6.2h0.4
	c1.7,0.2,8.9,0.8,12-0.3s6.5-4.1,15.1-1.9c4.2,1.1,7.9,5.8,12,4.3L349.5,567.3z"/>
<path class="st2" d="M372.3,541.6l4.7,5.3v12.9c0,0-4,40.7-16.8,45.2s-35.5-2.6-35.5-2.6s-5.9-15.6-3.1-16.5s24.3-6.6,24.3-6.6
	s-0.3-23.8,4.4-30.9c0,0-3.1-22.2,7.6-22.7S372.3,541.6,372.3,541.6z"/>
<path class="st11" d="M373,541.6l4.7,5.3v12.9c0,0-4,40.7-16.8,45.2s-35.5-2.6-35.5-2.6s-5.9-15.6-3.1-16.5s24.3-6.6,24.3-6.6
	s-0.3-23.8,4.4-30.9c0,0-3.1-22.2,7.6-22.7S373,541.6,373,541.6z"/>
<path class="st2" d="M340,486.9c0.2-1.6,0-3.1-0.5-4.6c-0.6-1.5-2.1-2.4-3.7-2.2c-2,0.5-2.9,3.1-4.9,3.7c-1.7,0.5-3.5-0.6-4.3-2.2
	c-0.7-1.6-1-3.4-0.8-5.1c0-2,0-4,0-5.9c0-2.1-0.1-4.5-1.4-6.2c-1.6-2.1-5.5-3-8.1-2.9c-1.7,0-3.4,0.7-4.6,1.9
	c-1.3,1.3-3.1,1.9-4.9,1.7c-1.6-0.2-2.9-1.4-3.4-2.9c0,0,0-0.1,0-0.1c8-10.6,23.2-12.7,33.8-4.7c10.6,8,12.7,23.2,4.7,33.8
	c-0.8,1-1.7,2-2.6,2.9C339.6,491.7,339.9,489.3,340,486.9z"/>
<path class="st13" d="M306.7,464.4c-1.6-0.2-2.9-1.4-3.4-2.9c-0.2-0.8-0.1-1.6-0.4-2.3c-0.5-1.9-2.5-2.8-3.9-4.2
	c-2.7-2.8-2.5-7.5-0.6-10.9c1.5-2.7,4.5-5,7.6-4.5c1.9,0.3,3.6,1.7,5.5,1.8s3.6-0.9,5.3-1.7c4.1-1.9,8.7-2.3,13.1-1.2
	c1.3,0.3,2.6,0.9,3.6,1.8c0.7,0.9,1.3,1.8,1.9,2.7c2.2,2.8,6.1,3.4,9.7,4s7.5,2,8.6,5.4c0.8,2.2,0,4.7-0.4,7c-0.2,0.5-0.1,1,0.1,1.5
	c0.5,0.9,1.9,0.5,3,0.7c2,0.4,2.5,3,2.6,5c0.1,2.3,0.2,4.7,0.2,7c0.1,0.9,0,1.7-0.2,2.6c-0.4,1.2-1.1,2.3-2,3.3l-7.8,9.4
	c-3.5,4.2-7.1,9-6.4,14.4c-1.6,0.7-3.6-0.7-4.1-2.4s-0.1-3.6,0.3-5.3c0.6-3,1-6.1,1.2-9.2c0.2-1.6,0-3.1-0.5-4.6
	c-0.6-1.5-2.2-2.4-3.8-2.2c-2,0.5-2.9,3.1-4.9,3.7c-1.7,0.5-3.5-0.6-4.3-2.2c-0.7-1.6-0.9-3.4-0.8-5.1v-5.9c0-2.1-0.1-4.5-1.4-6.2
	c-1.6-2.1-5.5-3-8.1-2.9c-1.7,0-3.4,0.7-4.6,1.9C310.3,464,308.5,464.6,306.7,464.4z"/>
<path class="st2" d="M312.1,538.6l7.4,30.4C319.6,569,325.4,569,312.1,538.6z"/>
<path class="st2" d="M337.5,533.5c0,0-9.7,15.9-5.9,32.3l1.8,0.1C333.3,565.9,330.1,558.3,337.5,533.5z"/>
<path class="st2" d="M343.6,623.4c0,0,11.9-3.9,12.8,5.2C356.4,628.6,354.1,622.3,343.6,623.4z"/>
<path class="st2" d="M309.2,570.9c0,0-2.4,16.5,1.9,23.2c-6.7,2.3-13.7,3.3-20.8,2.8l-1.4-26H309.2z"/>
<path class="st2" d="M310.8,592.2l-1.1,0.6l-7.3-16.5l6.9-6.2h0.4l0,0C309.4,571,307.5,585.2,310.8,592.2z"/>
<path class="st11" d="M309.2,570.2c0,0-2.4,16.5,1.9,23.2c-6.7,2.3-13.7,3.3-20.8,2.8l-8.3-26H309.2z"/>
<path class="st9" d="M288.8,846.2c-0.3,2.4-2.2,4.4-4.6,4.7c-6.4,1-21.9,3.4-25.8,5.3c-5,2.4-24.6,0.7-25.5-1.7
	c-0.3-1-0.1-2,0.3-2.8c0.9-1.9,2.6-3.3,4.6-4c3.7-1.2,10.7-3.8,12.6-6.6c0,0,8.7-7.6,11.2-11.7c0.9-1.6,2.7-2.7,4.5-2.8
	c2.1-0.1,4.4,1,5.3,5.5c0,0,11.3,6.5,14.4,0.8c0,0,0.5,8.7,2.4,11.1l0,0C288.7,844.6,288.9,845.4,288.8,846.2z"/>
<path class="st2" d="M288.8,846.2c-0.3,2.4-2.2,4.4-4.6,4.7c-6.4,1-21.9,3.4-25.8,5.3c-5,2.4-24.6,0.7-25.5-1.7
	c-0.3-1-0.1-2,0.3-2.8c0.7-1.4,1.8-2.6,3.2-3.4c3.2,2.1,10.3,4.2,25.9,1.8c14.9-2.3,22.3-4.6,25.9-6.2l0,0
	C288.7,844.6,288.9,845.4,288.8,846.2z"/>
<g class="st14">
	<path d="M353.3,459.7c0,0,0-0.1,0-0.1c0.5-1.7,0.7-3.5,0.7-5.4c-0.2,1.4-0.4,2.9-0.7,4.3C353.2,458.9,353.2,459.3,353.3,459.7z"/>
	<path d="M339.5,481.8c0.4,0.9,0.6,1.8,0.6,2.7c0.1-1.3-0.1-2.6-0.6-3.8c-0.6-1.5-2.2-2.4-3.8-2.2c-2,0.5-2.9,3.1-4.9,3.7
		c-1.7,0.5-3.5-0.7-4.3-2.2c-0.7-1.6-1-3.4-0.8-5.1c0-2,0-4,0-5.9c0-2.1-0.1-4.5-1.4-6.2c-1.6-2.1-5.5-3-8.1-2.9
		c-1.7,0-3.4,0.7-4.6,1.9c-1.3,1.3-3.1,1.9-4.9,1.7c-1.6-0.2-2.9-1.4-3.4-2.9c-0.2-0.8-0.1-1.6-0.4-2.3c-0.5-1.9-2.5-2.8-3.9-4.2
		c-1.2-1.4-1.9-3.1-2-5c-0.2,2.2,0.5,4.4,2,6.1c1.3,1.4,3.3,2.4,3.9,4.2c0.2,0.8,0.2,1.6,0.4,2.3c0.5,1.6,1.8,2.7,3.4,2.9
		c1.8,0.2,3.6-0.5,4.9-1.7c1.3-1.2,2.9-1.8,4.6-1.8c2.6-0.1,6.5,0.8,8.1,2.9c1.3,1.7,1.4,4,1.4,6.2c0,2,0,4,0,5.9
		c-0.1,1.8,0.1,3.5,0.8,5.1c0.8,1.6,2.6,2.7,4.3,2.2c2-0.6,2.9-3.3,4.9-3.7C337.3,479.5,338.8,480.4,339.5,481.8z"/>
	<path d="M358.9,475.3c-0.4,1.2-1.1,2.3-2,3.3c-2.6,3.1-5.2,6.2-7.8,9.4c-3.3,4-6.8,8.5-6.5,13.6c0.2-4.6,3.5-8.8,6.5-12.5l7.8-9.4
		c0.9-0.9,1.6-2,2-3.3c0.2-0.9,0.3-1.7,0.2-2.6C359.1,474.3,359,474.8,358.9,475.3z"/>
	<path d="M338.5,499.9c-0.1-0.4-0.2-0.8-0.2-1.3c-0.1,0.8,0,1.6,0.2,2.3c0.5,1.7,2.5,3.1,4.1,2.4c0-0.3-0.1-0.7-0.1-1
		C340.9,503,339,501.6,338.5,499.9z"/>
</g>
<path class="st2" d="M260,831.5c0,0,2.5,4.3,11.4,0.5"/>
<path class="st2" d="M335.6,832.5c0,0,7.7,9.1,17.5,3"/>
<path class="st2" d="M358.1,725c0,0-5.5,3.4-5.6,5.4s2.8-1.4,2.8-1.4L358.1,725z"/>
<path class="st2" d="M360.3,751.1c-1.9,1.6-4.3,2.5-6.7,2.6c-4.1,0.2-3.7,5.5-1.1,3.9S360.3,751.1,360.3,751.1z"/>
<path class="st2" d="M361.3,754.5c0,0-2.6,12.9-4.8,10.4"/>
<ellipse class="st0" cx="952.7" cy="801.3" rx="26.9" ry="4.5"/>
<ellipse class="st0" cx="115.2" cy="858.7" rx="26.9" ry="4.5"/>
<ellipse class="st15" cx="893.8" cy="850" rx="40.2" ry="6.8"/>
<path class="st15" d="M910.4,838.9c1.8-1.5,3.2-3.5,3.8-5.8c0.5-2.3-0.5-5-2.7-5.9c-2.5-0.9-5.1,0.8-7.1,2.5s-4.3,3.7-6.9,3.3
	c2.7-2.5,4-6.2,3.2-9.8c-0.1-0.7-0.4-1.4-0.9-2c-1.4-1.5-3.8-0.8-5.5,0.3c-5.2,3.7-6.7,10.7-6.7,17.1c-0.5-2.3-0.1-4.7-0.1-7
	s-0.7-5-2.6-6.2c-1.2-0.7-2.6-1-4-0.9c-2.3-0.1-5,0.1-6.5,1.8c-2,2.1-1.5,5.7,0.3,8s4.4,3.8,6.8,5.4c1.9,1.2,3.6,2.7,4.8,4.6
	c0.1,0.3,0.3,0.5,0.3,0.8h14.7C904.7,843.5,907.7,841.4,910.4,838.9z"/>
<path class="st15" d="M116.4,791.2c0,0,5.5,7.2-2.5,18s-14.6,20-12,26.8c0,0,12.1-20.2,22-20.4S127.3,803.4,116.4,791.2z"/>
<path class="st2" d="M116.4,791.2c0.5,0.7,0.9,1.5,1.1,2.3c9.6,11.3,14.7,21.8,5.5,22.1c-8.6,0.3-18.9,15.7-21.4,19.5
	c0.1,0.3,0.2,0.6,0.3,0.9c0,0,12.1-20.2,22-20.4S127.3,803.4,116.4,791.2z"/>
<path class="st16" d="M126.7,800.4c0,2.5-0.3,4.6-0.6,4.6s-0.6-2-0.6-4.6s0.4-1.3,0.7-1.3S126.7,797.9,126.7,800.4z"/>
<path class="st16" d="M130.2,803.4c-2.2,1.2-4.2,1.9-4.3,1.6s1.5-1.5,3.7-2.8s1.4-0.3,1.5,0S132.4,802.2,130.2,803.4z"/>
<path class="st15" d="M87.4,791.2c0,0-5.5,7.2,2.5,18s14.6,20,12,26.8c0,0-12.1-20.2-22-20.4S76.6,803.4,87.4,791.2z"/>
<path class="st2" d="M87.4,791.2c-0.5,0.7-0.9,1.5-1.1,2.3c-9.6,11.3-14.7,21.8-5.5,22.1c8.6,0.3,18.9,15.7,21.4,19.5
	c-0.1,0.3-0.2,0.6-0.3,0.9c0,0-12.1-20.2-22-20.4S76.6,803.4,87.4,791.2z"/>
<path class="st16" d="M77.2,800.4c0,2.5,0.3,4.6,0.6,4.6s0.6-2,0.6-4.6s-0.3-1.3-0.7-1.3S77.2,797.9,77.2,800.4z"/>
<path class="st16" d="M73.7,803.4c2.2,1.2,4.2,1.9,4.3,1.6s-1.5-1.5-3.7-2.8s-1.3-0.3-1.5,0S71.5,802.2,73.7,803.4z"/>
<path class="st17" d="M79,835.1c0,0,15.4-0.5,20-3.8s23.6-7.2,24.8-2s23.1,26.3,5.7,26.4s-40.3-2.7-44.9-5.5S79,835.1,79,835.1z"/>
<path class="st18" d="M129.8,854c-17.3,0.1-40.3-2.7-44.9-5.5c-3.5-2.2-4.9-9.8-5.4-13.4H79c0,0,1,12.4,5.6,15.2s27.6,5.7,44.9,5.5
	c5,0,6.7-1.8,6.6-4.5C135.4,853,133.5,853.9,129.8,854z"/>
<g>
	
		<linearGradient id="SVGID_2_" gradientUnits="userSpaceOnUse" x1="431.9282" y1="402.217" x2="431.9282" y2="600.44" gradientTransform="matrix(1 0 0 -1 -91.51 809.34)">
		<stop  offset="0" style="stop-color:#808080;stop-opacity:0.25"/>
		<stop  offset="0.54" style="stop-color:#808080;stop-opacity:0.12"/>
		<stop  offset="1" style="stop-color:#808080;stop-opacity:0.1"/>
	</linearGradient>
	<path class="st19" d="M289.7,208.9h101.5c2.3,0,4.2,1.9,4.2,4.2V403c0,2.3-1.9,4.2-4.2,4.2H289.7c-2.3,0-4.2-1.9-4.2-4.2V213.1
		C285.5,210.8,287.4,208.9,289.7,208.9z"/>
	<path class="st5" d="M294.1,211.6h92.6c3.9,0,7.1,3.2,7.1,7.1v178.6c0,3.9-3.2,7.1-7.1,7.1h-92.6c-3.9,0-7.1-3.2-7.1-7.1V218.7
		C287,214.8,290.2,211.6,294.1,211.6z"/>
	<path class="st20" d="M367.3,216.4c-0.7,4.2-4.3,7.3-8.5,7.3h-36.9c-4.3,0-7.9-3.1-8.5-7.3h-19.6c-2.2,0-4.1,1.8-4.1,4.1v175.1
		c0,2.2,1.8,4.1,4.1,4.1h93.4c2.2,0,4.1-1.8,4.1-4.1V220.5c0-2.2-1.8-4.1-4.1-4.1H367.3z"/>
	<path class="st21" d="M329.4,218.7h22.3c0.4,0,0.7,0.3,0.7,0.7l0,0c0,0.4-0.3,0.7-0.7,0.7h-22.3c-0.4,0-0.7-0.3-0.7-0.7l0,0
		C328.7,219.1,329,218.7,329.4,218.7z"/>
	<circle class="st21" cx="357.5" cy="219.3" r="0.9"/>
	
		<linearGradient id="SVGID_3_" gradientUnits="userSpaceOnUse" x1="643.6058" y1="310.3727" x2="643.6058" y2="508.5956" gradientTransform="matrix(1 0 0 -1 -91.51 809.34)">
		<stop  offset="0" style="stop-color:#808080;stop-opacity:0.25"/>
		<stop  offset="0.54" style="stop-color:#808080;stop-opacity:0.12"/>
		<stop  offset="1" style="stop-color:#808080;stop-opacity:0.1"/>
	</linearGradient>
	<path class="st22" d="M501.4,300.7h101.5c2.3,0,4.2,1.9,4.2,4.2v189.9c0,2.3-1.9,4.2-4.2,4.2H501.4c-2.3,0-4.2-1.9-4.2-4.2V304.9
		C497.2,302.6,499.1,300.7,501.4,300.7z"/>
	<path class="st5" d="M505.8,303.4h92.6c3.9,0,7.1,3.2,7.1,7.1v178.6c0,3.9-3.2,7.1-7.1,7.1h-92.6c-3.9,0-7.1-3.2-7.1-7.1V310.6
		C498.7,306.6,501.9,303.4,505.8,303.4z"/>
	<path class="st20" d="M578.9,308.3c-0.6,4.2-4.3,7.4-8.5,7.4h-36.9c-4.3,0-7.9-3.1-8.5-7.4h-19.6c-2.2,0-4.1,1.8-4.1,4.1v175.1
		c0,2.2,1.8,4.1,4.1,4.1h93.4c2.2,0,4.1-1.8,4.1-4c0,0,0,0,0,0V312.3c0-2.2-1.8-4.1-4.1-4.1L578.9,308.3z"/>
	<path class="st21" d="M541.1,310.6h22.3c0.4,0,0.7,0.3,0.7,0.7l0,0c0,0.4-0.3,0.7-0.7,0.7h-22.3c-0.4,0-0.7-0.3-0.7-0.7l0,0
		C540.3,310.9,540.7,310.6,541.1,310.6z"/>
	<circle class="st21" cx="569.2" cy="311.2" r="0.9"/>
	<g class="st23">
		<polygon class="st15" points="546.4,366 542.3,366 542.3,364 544.4,364 544.4,361.9 546.4,361.9 		"/>
		<rect x="528.1" y="364" class="st15" width="9.3" height="2"/>
		<polygon class="st15" points="517.9,366 513.8,366 513.8,361.9 515.8,361.9 515.8,364 517.9,364 		"/>
		<rect x="513.8" y="344.2" class="st15" width="2" height="10.7"/>
		<polygon class="st15" points="515.8,340.6 513.8,340.6 513.8,336.5 517.9,336.5 517.9,338.5 515.8,338.5 		"/>
		<rect x="522.8" y="336.5" class="st15" width="9.3" height="2"/>
		<polygon class="st15" points="546.4,340.6 544.4,340.6 544.4,338.5 542.3,338.5 542.3,336.5 546.4,336.5 		"/>
		<rect x="544.4" y="347.7" class="st15" width="2" height="10.7"/>
	</g>
	<g class="st23">
		<polygon class="st15" points="592.1,470.3 587.9,470.3 587.9,468.3 590.1,468.3 590.1,466.1 592.1,466.1 		"/>
		<rect x="573.8" y="468.3" class="st15" width="9.3" height="2"/>
		<polygon class="st15" points="563.6,470.3 559.4,470.3 559.4,466.1 561.4,466.1 561.4,468.3 563.6,468.3 		"/>
		<rect x="559.4" y="448.4" class="st15" width="2" height="10.7"/>
		<polygon class="st15" points="561.4,444.8 559.4,444.8 559.4,440.7 563.6,440.7 563.6,442.7 561.4,442.7 		"/>
		<rect x="568.4" y="440.7" class="st15" width="9.3" height="2"/>
		<polygon class="st15" points="592.1,444.8 590.1,444.8 590.1,442.7 587.9,442.7 587.9,440.7 592.1,440.7 		"/>
		<rect x="590.1" y="451.9" class="st15" width="2" height="10.6"/>
	</g>
	<g class="st23">
		<path class="st15" d="M591.3,380.5h-4.6v-2h4.6V380.5z M574.6,380.5h-12v-2h12V380.5z M550.6,380.5h-12v-2h12V380.5z M526.6,380.5
			h-12v-2h12V380.5z"/>
		<path class="st15" d="M591.3,395.9h-4.6v-2h4.6V395.9z M574.6,395.9h-12v-2h12V395.9z M550.6,395.9h-12v-2h12V395.9z M526.6,395.9
			h-12v-2h12V395.9z"/>
		<path class="st15" d="M591.3,411.2h-4.6v-2h4.6V411.2z M574.6,411.2h-12v-2h12V411.2z M550.6,411.2h-12v-2h12V411.2z M526.6,411.2
			h-12v-2h12V411.2z"/>
		<path class="st15" d="M591.3,426.5h-4.6v-2h4.6V426.5z M574.6,426.5h-12v-2h12V426.5z M550.6,426.5h-12v-2h12V426.5z M526.6,426.5
			h-12v-2h12V426.5z"/>
	</g>
	
		<linearGradient id="SVGID_4_" gradientUnits="userSpaceOnUse" x1="855.1313" y1="218.9633" x2="855.1313" y2="417.1863" gradientTransform="matrix(1 0 0 -1 -91.51 809.34)">
		<stop  offset="0" style="stop-color:#808080;stop-opacity:0.25"/>
		<stop  offset="0.54" style="stop-color:#808080;stop-opacity:0.12"/>
		<stop  offset="1" style="stop-color:#808080;stop-opacity:0.1"/>
	</linearGradient>
	<path class="st24" d="M712.9,392.2h101.5c2.3,0,4.2,1.9,4.2,4.2v189.9c0,2.3-1.9,4.2-4.2,4.2H712.9c-2.3,0-4.2-1.9-4.2-4.2V396.3
		C708.7,394,710.6,392.2,712.9,392.2z"/>
	<path class="st5" d="M717.3,394.8h92.6c3.9,0,7.1,3.2,7.1,7.1v178.6c0,3.9-3.2,7.1-7.1,7.1h-92.6c-3.9,0-7.1-3.2-7.1-7.1V402
		C710.2,398,713.4,394.8,717.3,394.8z"/>
	<path class="st20" d="M790.5,399.7c-0.6,4.2-4.3,7.4-8.5,7.4H745c-4.3,0-7.9-3.1-8.5-7.4h-19.6c-2.2,0-4.1,1.8-4.1,4.1v175.1
		c0,2.2,1.8,4.1,4.1,4.1h93.4c2.2,0,4.1-1.8,4.1-4.1V403.7c0-2.2-1.8-4.1-4.1-4.1H790.5z"/>
	<path class="st21" d="M752.6,402h22.3c0.4,0,0.7,0.3,0.7,0.7v0c0,0.4-0.3,0.7-0.7,0.7h-22.3c-0.4,0-0.7-0.3-0.7-0.7v0
		C751.9,402.3,752.2,402,752.6,402z"/>
	<circle class="st21" cx="780.7" cy="402.6" r="0.9"/>
	<rect x="723.9" y="428.9" class="st15" width="30.7" height="27.6"/>
	<rect x="769.9" y="533.1" class="st15" width="30.7" height="27.6"/>
	<rect x="723.9" y="471.5" class="st15" width="76.6" height="2"/>
	<rect x="723.9" y="486.8" class="st15" width="76.6" height="2"/>
	<rect x="723.9" y="502.1" class="st15" width="76.6" height="2"/>
	<rect x="723.9" y="517.4" class="st15" width="76.6" height="2"/>
	<path class="st25" d="M553.8,283.7h-2v-6.6h2V283.7z M553.8,265.1h-2v-12h2V265.1z M553.8,241.1h-2v-9.8h-0.2v-2h2.2V241.1z
		 M539.6,231.2h-12v-2h12V231.2z M515.6,231.2h-12v-2h12V231.2z M491.6,231.2h-12v-2h12V231.2z M467.6,231.2h-12v-2h12V231.2z
		 M443.6,231.2h-12v-2h12V231.2z M419.6,231.2h-12v-2h12V231.2z"/>
	<path class="st25" d="M753.7,618h-12v-2h12V618z M729.7,618h-12v-2h12V618z M705.7,618h-12v-2h12V618z M681.7,618h-12v-2h12V618z
		 M657.7,618h-12v-2h12V618z M633.7,618h-12v-2h12V618z M609.7,618h-12v-2h12V618z M585.7,618h-12v-2h12V618z M561.7,618h-10.5v-3.5
		h2v1.5h8.5V618z M765,615.3h-2v-12h2V615.3z M553.3,602.5h-2v-12h2V602.5z M553.3,578.5h-2v-12h2V578.5z M553.3,554.5h-2v-12h2
		V554.5z M553.3,530.5h-2v-12h2V530.5z"/>
	<rect x="393.2" y="478" class="st26" width="4.7" height="4.7"/>
	<rect x="523.2" y="239.5" class="st26" width="4.7" height="4.7"/>
	<rect x="346" y="444.9" class="st26" width="4.7" height="4.7"/>
	<rect x="388.5" y="562.9" class="st26" width="4.7" height="4.7"/>
	<rect x="506.4" y="581.7" class="st26" width="4.7" height="4.7"/>
	<rect x="447.7" y="371.6" class="st26" width="4.7" height="4.7"/>
	<rect x="664.7" y="537.2" class="st26" width="4.7" height="4.7"/>
	<rect x="662.1" y="345.9" class="st26" width="4.7" height="4.7"/>
	<rect x="579.3" y="518.3" class="st26" width="4.7" height="4.7"/>
	<rect x="737.6" y="270.4" class="st26" width="4.7" height="4.7"/>
	<rect x="614.9" y="261" class="st26" width="4.7" height="4.7"/>
	<rect x="723.4" y="600.6" class="st26" width="4.7" height="4.7"/>
</g>
</svg>
