<?xml version="1.0" encoding="utf-8"?>
<!-- Generator: Adobe Illustrator 22.0.1, SVG Export Plug-In . SVG Version: 6.00 Build 0)  -->
<svg version="1.1" id="Слой_1" xmlns="http://www.w3.org/2000/svg" xmlns:xlink="http://www.w3.org/1999/xlink" x="0px" y="0px"
	 viewBox="0 0 394.6 155.5" style="enable-background:new 0 0 394.6 155.5;" xml:space="preserve">
<style type="text/css">
	.st0{fill:#1781FF;}
	.st1{fill:#FF0056;}
</style>
<g>
	<g>
		<g>
			<g>
				<path class="st0" d="M50,68.7c-1.4-2.6-4.6-3.5-7.2-2.1c-2.6,1.4-3.5,4.6-2.1,7.2l14.1,25.7L61.2,89L50,68.7z"/>
				<path class="st0" d="M67.7,100.9L64.5,95l-6.3,10.6l4.7,8.6c0.9,1.7,2.7,2.7,4.6,2.7c1.9,0.1,3.7-1,4.6-2.6l12.6-21.2l-6.2-10.4
					L67.7,100.9z"/>
				<path class="st0" d="M155.6,39.3c-2.6-1.4-5.8-0.5-7.2,2.1l-33,59.5l-3.6-6l-2.4-4L96.1,68.5c-1-1.6-2.7-2.6-4.6-2.6
					c-1.9,0-3.6,1-4.6,2.6L82,77l6.2,10.4l3.4-5.7l11.9,20l2.4,4l5.2,8.7c1,1.6,2.7,2.6,4.6,2.6c0,0,0.1,0,0.1,0
					c1.9,0,3.6-1.1,4.6-2.7l37.5-67.6C159.1,44,158.1,40.8,155.6,39.3z"/>
			</g>
			<g>
				<path class="st1" d="M145.9,29.2c-1-0.5-2.2-0.2-2.7,0.8l-33.8,61l2.4,4l34.9-63C147.2,30.9,146.9,29.7,145.9,29.2z"/>
				<path class="st1" d="M100.2,107.6l-12-20.2L82,77l-4-6.7c-0.4-0.6-1-1-1.7-1s-1.4,0.4-1.7,1L62.2,90.9L56,101.5l-3.6,6.1
					L35.9,77.7c-0.5-1-1.7-1.3-2.7-0.8c-1,0.5-1.3,1.7-0.8,2.7l18.1,33c0.3,0.6,1,1,1.7,1c0.7,0,1.4-0.4,1.7-1l4.2-7.1L64.5,95
					l11.8-19.8l3.4,5.7l6.2,10.4l12.7,21.4c0.4,0.6,1,1,1.7,1c0,0,0,0,0,0c0.7,0,1.4-0.4,1.7-1l2.8-5l-2.4-4L100.2,107.6z"/>
			</g>
		</g>
		<g>
			<g>
				<path d="M195.6,86.6h-3.2c-0.4-1.6-0.7-3.1-1.1-4.7c-0.4-1.6-0.8-3.1-1.1-4.7l-1-4.5h-0.1c-0.2,0.7-0.3,1.5-0.5,2.2
					c-0.2,0.7-0.3,1.5-0.5,2.2c-0.4,1.6-0.7,3.1-1.1,4.7c-0.4,1.6-0.8,3.1-1.1,4.7h-3.2L178.3,65h3.8c0.2,1.5,0.5,3,0.8,4.4
					c0.3,1.5,0.5,2.9,0.8,4.4c0.2,0.9,0.3,1.7,0.4,2.6c0.1,0.9,0.3,1.8,0.4,2.6h0.1c0.1-0.7,0.3-1.3,0.4-2c0.1-0.7,0.3-1.4,0.4-2
					c0.4-1.7,0.8-3.3,1.1-5c0.4-1.7,0.8-3.3,1.1-5h2.9l2.3,10.1c0.1,0.7,0.3,1.4,0.4,2c0.1,0.7,0.3,1.3,0.5,2h0.1l0.8-5.1
					c0.3-1.8,0.6-3.5,0.8-4.9c0.2-1.4,0.5-2.8,0.7-4.1h3.8L195.6,86.6z"/>
				<path d="M207.5,78.4v-3.1h9.2v3.1H207.5z"/>
				<path d="M238.7,71.7c0,0.9-0.1,1.8-0.4,2.6c-0.3,0.8-0.7,1.5-1.2,2.1c-0.5,0.6-1.2,1.1-2,1.4c-0.8,0.3-1.7,0.5-2.8,0.5h-3.2v8.3
					h-3.5V65h6.5c1,0,1.9,0.1,2.7,0.4c0.8,0.3,1.5,0.7,2.1,1.2c0.6,0.5,1,1.2,1.3,2.1C238.6,69.5,238.7,70.5,238.7,71.7z
					 M235.2,71.6c0-1.1-0.3-1.9-0.8-2.5c-0.5-0.6-1.3-0.8-2.4-0.8h-2.9v6.7h3c1.1,0,1.8-0.3,2.3-0.9C235,73.4,235.2,72.6,235.2,71.6
					z"/>
				<path d="M261.8,86.6l-3.2-9h-2.8v9h-3.5V65h6.9c0.9,0,1.7,0.1,2.5,0.4c0.8,0.3,1.4,0.6,2,1.2c0.5,0.5,1,1.2,1.3,1.9
					c0.3,0.8,0.5,1.7,0.5,2.7c0,1.4-0.3,2.5-0.9,3.5c-0.6,1-1.4,1.7-2.6,2.3l3.7,9.6H261.8z M262,71.2c0-1-0.3-1.8-0.8-2.2
					c-0.5-0.5-1.3-0.7-2.2-0.7h-3.1v6.2h3.1c0.9,0,1.7-0.3,2.2-0.8C261.7,73,262,72.2,262,71.2z"/>
				<path d="M292.5,80c0,1-0.2,2-0.5,2.8c-0.3,0.8-0.8,1.5-1.4,2.1c-0.6,0.6-1.3,1-2.1,1.3c-0.8,0.3-1.7,0.5-2.7,0.5
					c-1.2,0-2.2-0.2-3-0.6c-0.8-0.4-1.5-0.9-2.1-1.5c-0.5-0.7-0.9-1.4-1.2-2.3c-0.2-0.9-0.4-1.8-0.4-2.7v-8.1c0-0.8,0.1-1.5,0.4-2.3
					c0.2-0.8,0.6-1.5,1.1-2.1c0.5-0.6,1.2-1.2,2-1.6c0.8-0.4,1.9-0.6,3.1-0.6c1.1,0,2.1,0.2,2.9,0.6c0.8,0.4,1.5,0.9,2.1,1.5
					c0.5,0.6,0.9,1.3,1.2,2.1c0.3,0.8,0.4,1.6,0.4,2.4V80z M288.9,71.4c0-0.3,0-0.6-0.1-0.9s-0.3-0.7-0.5-1
					c-0.2-0.3-0.5-0.6-0.9-0.9c-0.4-0.2-0.9-0.4-1.5-0.4s-1.1,0.1-1.5,0.3c-0.4,0.2-0.7,0.5-1,0.8c-0.2,0.3-0.4,0.7-0.5,1
					c-0.1,0.4-0.2,0.7-0.2,1.1l0,8.3c0,1,0.2,1.9,0.7,2.6c0.5,0.7,1.3,1.1,2.4,1.1c0.8,0,1.5-0.3,2.1-0.8s0.9-1.3,0.9-2.3V71.4z"/>
				<path d="M310.5,68.3v5.9h7.3v3.2h-7.3v9.2H307V65h12v3.3H310.5z"/>
				<path d="M332.5,86.6V65h3.6v21.6H332.5z"/>
				<path d="M357.6,68.2v18.3h-3.5V68.2h-4.7V65h13v3.2H357.6z"/>
			</g>
		</g>
	</g>
	<g>
		<path d="M193.1,115.9c0-1.9-0.9-2.9-2.7-2.9c-1.7,0-2.7,1-2.7,2.7v6.2h-1v-6c0-1.9-0.9-2.9-2.7-2.9c-1.7,0-2.7,1-2.7,2.9v6h-1
			v-9.7h1v1.1c0.7-0.8,1.7-1.3,2.9-1.3c1.4,0,2.5,0.6,3.1,1.8c0.7-1.1,1.8-1.8,3.3-1.8c1.1,0,1.9,0.3,2.5,0.9c0.7,0.6,1,1.5,1,2.7
			v6.2h-1V115.9z"/>
		<path d="M201.5,121.1c1.1,0,1.8-0.3,2.7-1.2l0.8,0.6c-1,1-1.9,1.5-3.5,1.5c-2.7,0-4.1-1.7-4.1-5c0-3.1,1.4-5,3.9-5
			c2.4,0,3.9,1.7,3.9,4.7v0.5h-6.7C198.3,119.7,199.4,121.1,201.5,121.1z M203.7,114.6c-0.4-1-1.4-1.6-2.5-1.6s-2.1,0.6-2.5,1.6
			c-0.2,0.6-0.3,0.9-0.3,1.8h5.7C204,115.5,203.9,115.2,203.7,114.6z"/>
		<path d="M214.3,120.6c-0.9,1.1-1.8,1.4-2.9,1.4c-1,0-1.9-0.3-2.4-0.8c-1-1-1.2-2.6-1.2-4.1c0-1.5,0.3-3.1,1.2-4.1
			c0.5-0.5,1.3-0.8,2.4-0.8c1.1,0,2,0.2,2.9,1.4v-5.9h1v14.3h-1V120.6z M211.6,113c-2.4,0-2.7,2-2.7,4.1c0,2,0.4,4.1,2.7,4.1
			c2.4,0,2.7-2,2.7-4.1C214.3,115,213.9,113,211.6,113z"/>
		<path d="M219.1,107.6h1.3v1.3h-1.3V107.6z M219.2,112.2h1v9.7h-1V112.2z"/>
		<path d="M229.8,120.9c-0.8,0.8-1.6,1.1-3,1.1c-1.4,0-2.2-0.2-2.9-0.9c-0.5-0.5-0.7-1.2-0.7-1.9c0-1.8,1.3-2.8,3.4-2.8h3.1v-1.1
			c0-1.5-0.7-2.4-2.7-2.4c-1.4,0-2,0.3-2.7,1.2l-0.7-0.6c0.8-1.1,1.8-1.5,3.4-1.5c2.6,0,3.8,1.1,3.8,3.2v6.6h-1V120.9z M226.8,117.3
			c-1.6,0-2.5,0.6-2.5,1.9c0,1.3,0.8,1.9,2.5,1.9c0.9,0,1.7-0.1,2.4-0.7c0.4-0.3,0.5-1,0.5-1.8v-1.2H226.8z"/>
		<path d="M246.1,121.2c-0.5,0.5-1.3,0.8-2.4,0.8c-1.1,0-2-0.2-2.9-1.4v1.2h-1v-14.3h1v5.9c0.9-1.1,1.8-1.4,2.9-1.4
			c1,0,1.9,0.3,2.4,0.8c1,1,1.2,2.6,1.2,4.1C247.3,118.6,247.1,120.2,246.1,121.2z M243.6,113c-2.4,0-2.7,2-2.7,4.1
			c0,2,0.4,4.1,2.7,4.1c2.4,0,2.7-2,2.7-4.1C246.3,115,245.9,113,243.6,113z"/>
		<path d="M257,120.7c-0.7,0.8-1.7,1.3-2.8,1.3c-1.1,0-1.9-0.3-2.6-0.9c-0.7-0.6-1-1.5-1-2.7v-6.2h1v6c0,1.9,0.9,2.9,2.7,2.9
			s2.7-1,2.7-2.9v-6h1v9.7h-1V120.7z"/>
		<path d="M263.1,125.6c-0.5,0.5-1.2,0.6-1.8,0.6h-0.5v-0.9h0.4c1.1,0,1.4-0.4,1.8-1.3l0.8-2.1l-3.5-9.7h1.1l2.9,8.5l2.9-8.5h1.1
			l-4.5,12.3C263.6,125,263.4,125.4,263.1,125.6z"/>
		<path d="M270.4,107.6h1.3v1.3h-1.3V107.6z M270.5,112.2h1v9.7h-1V112.2z"/>
		<path d="M281.9,115.9c0-1.9-0.9-2.9-2.7-2.9c-1.7,0-2.7,1-2.7,2.9v6h-1v-9.7h1v1.1c0.7-0.8,1.7-1.3,2.8-1.3c1.1,0,1.9,0.3,2.6,0.9
			c0.7,0.6,1,1.5,1,2.7v6.2h-1V115.9z"/>
		<path d="M289.7,126.6c-1.4,0-2.2-0.4-3.2-1.3l0.7-0.7c0.8,0.7,1.3,1.1,2.5,1.1c2,0,2.9-1.4,2.9-3.4v-1.7c-0.9,1.1-1.8,1.4-2.9,1.4
			c-1,0-1.9-0.3-2.4-0.8c-1-1-1.2-2.6-1.2-4.1c0-1.5,0.3-3.1,1.2-4.1c0.5-0.5,1.3-0.8,2.4-0.8c1.1,0,2,0.2,2.9,1.4v-1.2h1v10.2
			C293.6,124.8,292.2,126.6,289.7,126.6z M289.9,113c-2.4,0-2.7,2-2.7,4.1c0,2,0.4,4.1,2.7,4.1s2.7-2,2.7-4.1
			C292.6,115,292.3,113,289.9,113z"/>
		<path d="M308.4,120.9c-0.8,0.8-1.6,1.1-3,1.1c-1.4,0-2.2-0.2-2.9-0.9c-0.5-0.5-0.7-1.2-0.7-1.9c0-1.8,1.3-2.8,3.4-2.8h3.1v-1.1
			c0-1.5-0.7-2.4-2.7-2.4c-1.4,0-2,0.3-2.7,1.2l-0.7-0.6c0.8-1.1,1.8-1.5,3.4-1.5c2.6,0,3.8,1.1,3.8,3.2v6.6h-1V120.9z M305.3,117.3
			c-1.6,0-2.5,0.6-2.5,1.9c0,1.3,0.8,1.9,2.5,1.9c0.9,0,1.7-0.1,2.4-0.7c0.4-0.3,0.5-1,0.5-1.8v-1.2H305.3z"/>
		<path d="M316.2,126.6c-1.4,0-2.2-0.4-3.2-1.3l0.7-0.7c0.8,0.7,1.3,1.1,2.5,1.1c2,0,2.9-1.4,2.9-3.4v-1.7c-0.9,1.1-1.8,1.4-2.9,1.4
			c-1,0-1.9-0.3-2.4-0.8c-1-1-1.2-2.6-1.2-4.1c0-1.5,0.3-3.1,1.2-4.1c0.5-0.5,1.3-0.8,2.4-0.8c1.1,0,2,0.2,2.9,1.4v-1.2h1v10.2
			C320.1,124.8,318.7,126.6,316.2,126.6z M316.4,113c-2.4,0-2.7,2-2.7,4.1c0,2,0.4,4.1,2.7,4.1c2.4,0,2.7-2,2.7-4.1
			C319.1,115,318.8,113,316.4,113z"/>
		<path d="M327.7,121.1c1.1,0,1.8-0.3,2.7-1.2l0.8,0.6c-1,1-1.9,1.5-3.5,1.5c-2.7,0-4.1-1.7-4.1-5c0-3.1,1.4-5,3.9-5
			s3.9,1.7,3.9,4.7v0.5h-6.7C324.5,119.7,325.6,121.1,327.7,121.1z M329.9,114.6c-0.4-1-1.4-1.6-2.5-1.6s-2.1,0.6-2.5,1.6
			c-0.2,0.6-0.3,0.9-0.3,1.8h5.7C330.2,115.5,330.1,115.2,329.9,114.6z"/>
		<path d="M341,115.9c0-1.9-0.9-2.9-2.7-2.9c-1.7,0-2.7,1-2.7,2.9v6h-1v-9.7h1v1.1c0.7-0.8,1.7-1.3,2.9-1.3c1.1,0,1.9,0.3,2.6,0.9
			c0.7,0.6,1,1.5,1,2.7v6.2h-1V115.9z"/>
		<path d="M349.5,122c-2.6,0-4.3-1.9-4.3-5s1.6-5,4.3-5c1.3,0,2.2,0.3,3.2,1.5l-0.7,0.6c-0.8-0.9-1.5-1.2-2.5-1.2
			c-1.1,0-2,0.4-2.6,1.3c-0.5,0.7-0.7,1.5-0.7,2.8s0.2,2.1,0.7,2.8c0.6,0.9,1.5,1.3,2.6,1.3c1,0,1.7-0.3,2.5-1.2l0.7,0.6
			C351.7,121.7,350.8,122,349.5,122z"/>
		<path d="M357,125.6c-0.5,0.5-1.2,0.6-1.8,0.6h-0.5v-0.9h0.4c1.1,0,1.4-0.4,1.8-1.3l0.8-2.1l-3.5-9.7h1.1l2.9,8.5l2.9-8.5h1.1
			l-4.5,12.3C357.4,125,357.2,125.4,357,125.6z"/>
	</g>
</g>
</svg>
