<?xml version="1.0" encoding="utf-8"?>
<!-- Generator: Adobe Illustrator 22.0.1, SVG Export Plug-In . SVG Version: 6.00 Build 0)  -->
<svg version="1.1" id="Слой_1" xmlns="http://www.w3.org/2000/svg" xmlns:xlink="http://www.w3.org/1999/xlink" x="0px" y="0px"
	 viewBox="0 0 150 150" style="enable-background:new 0 0 150 150;" xml:space="preserve">
<g>
	<path fill="#FFFFFF" class="st0" d="M0,0v150h73.4v-1.7c0-0.2,0-0.5,0-0.7c0.1-9.8,0-19.6,0-29.4c0-9.9,0-19.9,0-29.8c0-1.7-0.5-2.2-2.1-2.1
		c-3.1,0.1-6.2,0-9.3,0.1c-1.3,0-1.7-0.3-1.7-1.6c0.1-6.2,0.1-12.4,0-18.6c0-1.2,0.3-1.6,1.6-1.6c3.2,0.1,6.4-0.1,9.5,0.1
		c1.8,0.1,2.2-0.6,2.2-2.3c-0.1-4.7-0.1-9.5,0-14.2c0.1-5.8,1.7-11.2,5.1-15.8c4.3-5.9,10.5-8.7,17.7-9c7.3-0.3,14.7-0.1,22-0.2
		c1,0,1.3,0.4,1.3,1.3c0,6.3,0,12.6,0,18.8c0,1.1-0.4,1.5-1.5,1.4c-3.5-0.1-7.1,0-10.6,0c-4.7,0-7.5,2.4-7.8,7.1
		c-0.2,3.7-0.1,7.5-0.2,11.2c0,1.3,0.8,1.2,1.6,1.2c5.4,0,10.7,0.1,16.1,0c1.6,0,2.1,0.3,1.9,2c-0.7,6.2-1.3,12.5-1.8,18.7
		c-0.1,1.4-0.8,1.7-2,1.7c-4.2-0.1-8.5,0-12.7,0c-3,0-2.7-0.4-2.7,2.7c0,18.1,0,36.3,0,54.4h0v2.7c0,0.4,0,0.9,0,1.3c0,0,0,0,0,0.1
		v2.5H150V0H0z"/>
</g>
</svg>
