<?xml version="1.0" encoding="utf-8"?>
<!-- Generator: Adobe Illustrator 22.0.1, SVG Export Plug-In . SVG Version: 6.00 Build 0)  -->
<svg version="1.1" id="Слой_1" xmlns="http://www.w3.org/2000/svg" xmlns:xlink="http://www.w3.org/1999/xlink" x="0px" y="0px"
	 viewBox="0 0 150 150" style="enable-background:new 0 0 150 150;" xml:space="preserve">
<g>
	<path fill="#FFFFFF"  stroke="#FFFFFF" d="M81.6,66.9v-0.2c0,0.1-0.1,0.2-0.2,0.2H81.6z"/>
	<path fill="#FFFFFF" d="M0,0v150h150V0H0z M44.9,127.7H21.3V56.6h23.6V127.7z M33.1,46.9h-0.2c-7.9,0-13.1-5.5-13.1-12.3
		c0-7,5.3-12.3,13.4-12.3c8.1,0,13.1,5.3,13.2,12.3C46.5,41.4,41.3,46.9,33.1,46.9z M130.1,127.7h-23.6v-38c0-9.6-3.4-16.1-12-16.1
		c-6.5,0-10.4,4.4-12.1,8.6c-0.6,1.5-0.8,3.6-0.8,5.8v39.7H58c0,0,0.3-64.4,0-71.1h23.6v10.1c3.1-4.8,8.7-11.7,21.3-11.7
		c15.6,0,27.2,10.2,27.2,32V127.7z"/>
</g>
</svg>
