<?xml version="1.0" encoding="utf-8"?>
<!-- Generator: Adobe Illustrator 22.0.1, SVG Export Plug-In . SVG Version: 6.00 Build 0)  -->
<svg version="1.1" id="Слой_1" xmlns="http://www.w3.org/2000/svg" xmlns:xlink="http://www.w3.org/1999/xlink" x="0px" y="0px"
	 viewBox="0 0 200 200" style="enable-background:new 0 0 200 200;" xml:space="preserve">
<style type="text/css">
	.st0{fill-rule:evenodd;clip-rule:evenodd;fill:#295396;}
	.st1{fill-rule:evenodd;clip-rule:evenodd;fill:#FFFFFF;}
</style>
<g>
	<rect x="23.4" y="23.4" class="st0" width="153.3" height="153.3"/>
	<path class="st1" d="M133.3,68.9c3.6,0,7.2,0,10.8,0c1.1,0,1.5-0.3,1.5-1.5c0-6.4,0-12.8,0-19.2c0-1-0.3-1.4-1.4-1.4
		c-7.5,0.1-15-0.1-22.5,0.2c-7.3,0.3-13.6,3.1-18,9.2c-3.5,4.8-5.1,10.3-5.2,16.2c-0.1,4.8-0.1,9.7,0,14.5c0,1.7-0.3,2.4-2.2,2.3
		c-3.2-0.2-6.5,0-9.7-0.1c-1.2,0-1.6,0.4-1.6,1.6c0.1,6.3,0.1,12.7,0,19c0,1.4,0.5,1.7,1.7,1.7c3.2-0.1,6.3,0.1,9.5-0.1
		c1.7-0.1,2.2,0.5,2.2,2.2c-0.1,10.2,0,20.3,0,30.5c0,10,0,20,0,30.1c0,0.3,0,0.5,0,0.8v1.8h27.3v-2.5c0,0,0,0,0-0.1
		c0-0.4,0-0.9,0-1.3V170h0c-0.1-18.5,0-37.1,0-55.6c0-3.2-0.3-2.7,2.8-2.7c4.3,0,8.6,0,13,0c1.3,0,2-0.3,2.1-1.7
		c0.5-6.4,1.1-12.8,1.8-19.1c0.2-1.7-0.3-2.1-2-2c-5.5,0.1-11,0-16.4,0c-0.9,0-1.7,0.1-1.7-1.3c0.1-3.8-0.1-7.6,0.2-11.5
		C125.7,71.4,128.5,68.9,133.3,68.9z"/>
</g>
</svg>
