<svg width="250" height="68" viewBox="0 0 250 68" fill="none" xmlns="http://www.w3.org/2000/svg">
<path d="M17.2 54.1L21.9 46.1L13.5 30.8C12.4 28.9 10 28.2 8.1 29.2C6.2 30.3 5.5 32.7 6.5 34.6L17.2 54.1Z" fill="white"/>
<path d="M93.2 8.69999C91.3 7.59999 88.8 8.29999 87.8 10.3L62.9 55.1L60.2 50.5L86.5 2.99999C86.9 2.29999 86.6 1.39999 85.9 0.999992C85.2 0.599992 84.3 0.899992 83.9 1.59999L58.4 47.6L48.4 30.7C47.7 29.5 46.4 28.7 45 28.7C43.6 28.7 42.3 29.4 41.6 30.7L37.8 37.1L34.8 32C34.5 31.5 34 31.3 33.5 31.3C33 31.3 32.5 31.6 32.2 32L22.9 47.6L18.2 55.6L15.5 60.2L2.9 37.6C2.5 36.9 1.6 36.6 0.900002 37C0.200002 37.4 -0.0999976 38.3 0.300002 39L14 63.9C14.3 64.4 14.8 64.7 15.3 64.7C15.8 64.7 16.3 64.4 16.6 64L19.8 58.7L23.4 65.2C24.1 66.5 25.4 67.2 26.8 67.3C28.3 67.3 29.6 66.6 30.3 65.3L39.8 49.3L35.1 41.5L27 55.2L24.5 50.7L33.4 35.8L36 40.1L40.7 47.9L50.3 64C50.6 64.5 51.1 64.7 51.6 64.7C52.1 64.7 52.6 64.4 52.9 63.9L55 60.1L53.2 57.1L51.5 60.1L42.4 44.8L45 40.5L54 55.6L55.8 58.6L59.7 65.1C60.4 66.3 61.7 67.1 63.1 67.1C63.1 67.1 63.1 67.1 63.2 67.1C64.6 67.1 65.9 66.3 66.6 65L94.9 14C95.8 12.2 95.1 9.79999 93.2 8.69999Z" fill="white"/>
<path d="M123.3 35.2C123.1 36.3 122.9 37.5 122.7 38.9L122.1 42.8H122C121.9 42.3 121.8 41.8 121.7 41.3C121.6 40.8 121.5 40.3 121.4 39.8L119.6 32.2H117.5C117.2 33.5 116.9 34.7 116.6 36C116.3 37.3 116 38.5 115.7 39.8C115.6 40.3 115.5 40.8 115.4 41.3C115.3 41.8 115.2 42.3 115.1 42.8H115C114.9 42.1 114.8 41.5 114.7 40.8C114.6 40.1 114.5 39.5 114.4 38.8C114.2 37.7 114 36.6 113.8 35.5C113.6 34.4 113.4 33.3 113.2 32.2H110.3L113.6 48.4H116C116.3 47.2 116.5 46.1 116.9 44.9C117.2 43.7 117.5 42.5 117.8 41.3C117.9 40.7 118 40.2 118.2 39.6C118.3 39 118.4 38.5 118.6 37.9H118.7L119.5 41.3C119.8 42.5 120 43.7 120.3 44.8C120.6 46 120.9 47.1 121.1 48.3H123.5L126.8 32.1H123.9C123.6 33.1 123.5 34.1 123.3 35.2Z" fill="white"/>
<path d="M139.3 39.8H132.3V42.1H139.3V39.8Z" fill="white"/>
<path d="M154.5 33.3C154.1 32.9 153.5 32.6 152.9 32.4C152.3 32.2 151.6 32.1 150.8 32.1H146V48.4H148.7V42.2H151.1C151.9 42.2 152.6 42.1 153.2 41.8C153.8 41.5 154.3 41.2 154.7 40.7C155.1 40.2 155.4 39.7 155.6 39.1C155.8 38.5 155.9 37.8 155.9 37.1C155.9 36.2 155.8 35.5 155.5 34.9C155.3 34.2 154.9 33.7 154.5 33.3ZM152.6 38.8C152.2 39.3 151.6 39.5 150.8 39.5H148.6V34.5H150.8C151.6 34.5 152.2 34.7 152.6 35.1C153 35.5 153.2 36.1 153.2 36.9C153.2 37.8 153 38.4 152.6 38.8Z" fill="white"/>
<path d="M175.4 39.4C175.8 38.7 176.1 37.8 176.1 36.7C176.1 35.9 176 35.2 175.7 34.7C175.5 34.1 175.1 33.6 174.7 33.2C174.3 32.8 173.8 32.5 173.2 32.3C172.6 32.1 172 32 171.3 32H166.1V48.3H168.8V41.5H170.9L173.3 48.3H176.2L173.4 41.1C174.3 40.7 174.9 40.1 175.4 39.4ZM172.8 38.5C172.4 38.9 171.8 39.1 171.1 39.1H168.8V34.5H171.2C171.9 34.5 172.5 34.7 172.9 35C173.3 35.4 173.5 35.9 173.5 36.7C173.4 37.5 173.2 38.1 172.8 38.5Z" fill="white"/>
<path d="M195.2 33.5C194.8 33 194.3 32.6 193.6 32.3C193 32 192.2 31.9 191.4 31.9C190.5 31.9 189.7 32.1 189.1 32.4C188.5 32.7 188 33.1 187.6 33.6C187.2 34.1 186.9 34.6 186.7 35.2C186.5 35.8 186.4 36.4 186.4 37V43.1C186.4 43.8 186.5 44.5 186.7 45.1C186.9 45.7 187.2 46.3 187.6 46.8C188 47.3 188.5 47.7 189.2 48C189.8 48.3 190.6 48.4 191.5 48.4C192.2 48.4 192.9 48.3 193.5 48C194.1 47.8 194.6 47.4 195.1 47C195.5 46.6 195.9 46 196.1 45.4C196.3 44.8 196.5 44.1 196.5 43.3V36.9C196.5 36.3 196.4 35.7 196.2 35.1C195.9 34.5 195.6 34 195.2 33.5ZM193.7 43.6C193.7 44.3 193.5 44.9 193 45.3C192.6 45.7 192 45.9 191.4 45.9C190.5 45.9 189.9 45.6 189.6 45.1C189.2 44.6 189.1 43.9 189.1 43.1V36.9C189.1 36.7 189.1 36.4 189.2 36.1C189.3 35.8 189.4 35.6 189.6 35.3C189.8 35.1 190 34.9 190.3 34.7C190.6 34.5 191 34.5 191.4 34.5C191.8 34.5 192.2 34.6 192.5 34.8C192.8 35 193 35.2 193.2 35.4C193.4 35.6 193.5 35.9 193.6 36.2C193.7 36.5 193.7 36.7 193.7 36.9V43.6V43.6Z" fill="white"/>
<path d="M207.3 48.3H210V41.4H215.5V38.9H210V34.5H216.4V32H207.3V48.3Z" fill="white"/>
<path d="M229.3 32H226.6V48.3H229.3V32Z" fill="white"/>
<path d="M239.3 32V34.5H242.8V48.3H245.5V34.5H249.1V32H239.3Z" fill="white"/>
</svg>
