<svg width="250" height="68" viewBox="0 0 250 68" fill="none" xmlns="http://www.w3.org/2000/svg">
<path d="M17.2 53.4L21.9 45.4L13.5 30.1C12.4 28.2 10 27.5 8.1 28.5C6.2 29.6 5.5 32 6.5 33.9L17.2 53.4Z" fill="white"/>
<path d="M93.2 7.99999C91.3 6.89999 88.8 7.59999 87.8 9.59999L62.9 54.5L60.2 49.9L86.5 2.39999C86.9 1.69999 86.6 0.799985 85.9 0.399985C85.2 -1.45882e-05 84.3 0.299986 83.9 0.999986L58.4 47L48.4 30.1C47.7 28.9 46.4 28.1 45 28.1C43.6 28.1 42.3 28.8 41.6 30.1L37.8 36.5L34.8 31.4C34.5 30.9 34 30.7 33.5 30.7C33 30.7 32.5 31 32.2 31.4L22.9 47L18.2 55L15.5 59.6L2.89999 37C2.49999 36.3 1.59999 36 0.899994 36.4C0.199994 36.8 -0.100005 37.7 0.299995 38.4L14 63.3C14.3 63.8 14.8 64.1 15.3 64.1C15.8 64.1 16.3 63.8 16.6 63.4L19.8 58.1L23.4 64.6C24.1 65.9 25.4 66.6 26.8 66.7C28.3 66.7 29.6 66 30.3 64.7L39.8 48.7L35.1 40.9L27 54.6L24.5 50L33.4 35L36 39.3L40.7 47.1L50.3 63.2C50.6 63.7 51.1 63.9 51.6 63.9C52.1 63.9 52.6 63.6 52.9 63.1L55 59.3L53.2 56.3L51.5 59.3L42.4 44L45 39.7L54 54.8L55.8 57.8L59.7 64.3C60.4 65.5 61.7 66.3 63.1 66.3C63.1 66.3 63.1 66.3 63.2 66.3C64.6 66.3 65.9 65.5 66.6 64.2L94.9 13.2C95.8 11.5 95.1 9.09999 93.2 7.99999Z" fill="white"/>
<path d="M123.3 34.5C123.1 35.6 122.9 36.8 122.7 38.2L122.1 42.1H122C121.9 41.6 121.8 41.1 121.7 40.6C121.6 40.1 121.5 39.6 121.4 39.1L119.6 31.5H117.5C117.2 32.8 116.9 34 116.6 35.3C116.3 36.6 116 37.8 115.7 39.1C115.6 39.6 115.5 40.1 115.4 40.6C115.3 41.1 115.2 41.6 115.1 42.1H115C114.9 41.4 114.8 40.8 114.7 40.1C114.6 39.4 114.5 38.8 114.4 38.1C114.2 37 114 35.9 113.8 34.8C113.6 33.7 113.4 32.6 113.2 31.5H110.3L113.6 47.7H116C116.3 46.5 116.5 45.4 116.9 44.2C117.2 43 117.5 41.8 117.8 40.6C117.9 40 118 39.5 118.2 38.9C118.3 38.3 118.4 37.8 118.6 37.2H118.7L119.5 40.6C119.8 41.8 120 43 120.3 44.1C120.6 45.3 120.9 46.4 121.1 47.6H123.5L126.8 31.4H123.9C123.6 32.4 123.5 33.5 123.3 34.5Z" fill="white"/>
<path d="M139.3 39.2H132.3V41.5H139.3V39.2Z" fill="white"/>
<path d="M154.5 32.6C154.1 32.2 153.5 31.9 152.9 31.7C152.3 31.5 151.6 31.4 150.8 31.4H146V47.7H148.7V41.5H151.1C151.9 41.5 152.6 41.4 153.2 41.1C153.8 40.8 154.3 40.5 154.7 40C155.1 39.5 155.4 39 155.6 38.4C155.8 37.8 155.9 37.1 155.9 36.4C155.9 35.5 155.8 34.8 155.5 34.2C155.3 33.6 154.9 33 154.5 32.6ZM152.6 38.2C152.2 38.7 151.6 38.9 150.8 38.9H148.6V33.9H150.8C151.6 33.9 152.2 34.1 152.6 34.5C153 34.9 153.2 35.5 153.2 36.3C153.2 37.1 153 37.7 152.6 38.2Z" fill="white"/>
<path d="M175.4 38.7C175.8 38 176.1 37.1 176.1 36C176.1 35.2 176 34.5 175.7 34C175.5 33.4 175.1 32.9 174.7 32.5C174.3 32.1 173.8 31.8 173.2 31.6C172.6 31.4 172 31.3 171.3 31.3H166.1V47.6H168.8V40.8H170.9L173.3 47.6H176.2L173.4 40.4C174.3 40 174.9 39.5 175.4 38.7ZM172.8 37.9C172.4 38.3 171.8 38.5 171.1 38.5H168.8V33.9H171.2C171.9 33.9 172.5 34.1 172.9 34.4C173.3 34.8 173.5 35.3 173.5 36.1C173.4 36.9 173.2 37.5 172.8 37.9Z" fill="white"/>
<path d="M195.2 32.9C194.8 32.4 194.3 32 193.6 31.7C193 31.4 192.2 31.3 191.4 31.3C190.5 31.3 189.7 31.5 189.1 31.8C188.5 32.1 188 32.5 187.6 33C187.2 33.5 186.9 34 186.7 34.6C186.5 35.2 186.4 35.8 186.4 36.4V42.5C186.4 43.2 186.5 43.9 186.7 44.5C186.9 45.1 187.2 45.7 187.6 46.2C188 46.7 188.5 47.1 189.2 47.4C189.8 47.7 190.6 47.8 191.5 47.8C192.2 47.8 192.9 47.7 193.5 47.4C194.1 47.2 194.6 46.8 195.1 46.4C195.5 46 195.9 45.4 196.1 44.8C196.3 44.2 196.5 43.5 196.5 42.7V36.3C196.5 35.7 196.4 35.1 196.2 34.5C195.9 33.9 195.6 33.3 195.2 32.9ZM193.7 43C193.7 43.7 193.5 44.3 193 44.7C192.6 45.1 192 45.3 191.4 45.3C190.5 45.3 189.9 45 189.6 44.5C189.2 44 189.1 43.3 189.1 42.5V36.3C189.1 36.1 189.1 35.8 189.2 35.5C189.3 35.2 189.4 35 189.6 34.7C189.8 34.5 190 34.3 190.3 34.1C190.6 33.9 191 33.9 191.4 33.9C191.8 33.9 192.2 34 192.5 34.2C192.8 34.4 193 34.6 193.2 34.8C193.4 35 193.5 35.3 193.6 35.6C193.7 35.9 193.7 36.1 193.7 36.3V43V43Z" fill="white"/>
<path d="M207.3 47.7H210V40.7H215.5V38.3H210V33.9H216.4V31.4H207.3V47.7Z" fill="white"/>
<path d="M229.3 31.4H226.6V47.7H229.3V31.4Z" fill="white"/>
<path d="M239.3 31.4V33.8H242.8V47.7H245.5V33.8H249.1V31.4H239.3Z" fill="white"/>
<path d="M13.6 30.3C12.5 28.4 10.1 27.7 8.19999 28.7C6.29999 29.8 5.59999 32.2 6.59999 34.1L17.3 53.5L22 45.5L13.6 30.3Z" fill="#1781FF"/>
<path d="M26.9 54.6L24.4 50.1L19.7 58.1L23.3 64.6C24 65.9 25.3 66.6 26.7 66.7C28.2 66.7 29.5 66 30.2 64.7L39.7 48.7L35 40.9L26.9 54.6Z" fill="#1781FF"/>
<path d="M93.2 8.09999C91.3 6.99999 88.8 7.69999 87.8 9.69999L62.9 54.6L60.1 50L58.3 47L48.3 30.1C47.6 28.9 46.3 28.1 44.9 28.1C43.5 28.1 42.2 28.8 41.5 30.1L37.7 36.5L42.4 44.3L45 40L54 55.1L55.8 58.1L59.7 64.6C60.4 65.8 61.7 66.6 63.1 66.6C63.1 66.6 63.1 66.6 63.2 66.6C64.6 66.6 65.9 65.8 66.6 64.5L94.9 13.5C95.8 11.6 95.1 9.19999 93.2 8.09999Z" fill="#1781FF"/>
<path d="M85.9 0.499992C85.2 0.0999915 84.3 0.399992 83.9 1.09999L58.4 47L60.2 50L86.5 2.49999C86.9 1.79999 86.6 0.899992 85.9 0.499992Z" fill="#FF0056"/>
<path d="M51.4 59.6L42.3 44.3L37.6 36.5L34.6 31.4C34.3 30.9 33.8 30.7 33.3 30.7C32.8 30.7 32.3 31 32 31.4L22.8 47L18.1 55L15.4 59.6L2.89999 37.1C2.49999 36.4 1.59999 36.1 0.899994 36.5C0.199994 36.9 -0.100005 37.8 0.299995 38.5L14 63.3C14.3 63.8 14.8 64.1 15.3 64.1C15.8 64.1 16.3 63.8 16.6 63.4L19.8 58.1L24.5 50.1L33.4 35.2L36 39.5L40.7 47.3L50.3 63.4C50.6 63.9 51.1 64.1 51.6 64.1C52.1 64.1 52.6 63.8 52.9 63.3L55 59.5L53.2 56.5L51.4 59.6Z" fill="#FF0056"/>
<path d="M123.4 43.5H121C120.7 42.3 120.5 41.2 120.2 40C119.9 38.8 119.6 37.6 119.4 36.5L118.6 33.1H118.5C118.4 33.7 118.3 34.2 118.1 34.8C118 35.4 117.9 35.9 117.7 36.5C117.4 37.7 117.2 38.9 116.8 40.1C116.5 41.3 116.2 42.5 115.9 43.6H113.5L110.2 27.4H113.1C113.3 28.5 113.5 29.6 113.7 30.7C113.9 31.8 114.1 32.9 114.3 34C114.4 34.7 114.5 35.3 114.6 36C114.7 36.7 114.8 37.3 114.9 38H115C115.1 37.5 115.2 37 115.3 36.5C115.4 36 115.5 35.5 115.6 35C115.9 33.7 116.2 32.5 116.5 31.2C116.8 29.9 117.1 28.7 117.4 27.4H119.5L121.3 35C121.4 35.5 121.5 36 121.6 36.5C121.7 37 121.8 37.5 121.9 38H122L122.6 34.1C122.8 32.7 123 31.5 123.2 30.4C123.4 29.3 123.6 28.3 123.7 27.3H126.6L123.4 43.5Z" fill="black"/>
<path d="M132.3 37.3V35H139.3V37.3H132.3Z" fill="black"/>
<path d="M155.9 32.2C155.9 32.9 155.8 33.6 155.6 34.2C155.4 34.8 155.1 35.3 154.7 35.8C154.3 36.3 153.8 36.6 153.2 36.9C152.6 37.2 151.9 37.3 151.1 37.3H148.7V43.5H146V27.2H150.9C151.7 27.2 152.3 27.3 153 27.5C153.6 27.7 154.1 28 154.6 28.4C155 28.8 155.4 29.3 155.6 30C155.7 30.6 155.9 31.4 155.9 32.2ZM153.2 32.2C153.2 31.4 153 30.8 152.6 30.4C152.2 30 151.6 29.8 150.8 29.8H148.6V34.8H150.8C151.6 34.8 152.2 34.6 152.6 34.1C153 33.6 153.2 33 153.2 32.2Z" fill="black"/>
<path d="M173.3 43.5L170.9 36.7H168.8V43.5H166.1V27.2H171.3C172 27.2 172.6 27.3 173.2 27.5C173.8 27.7 174.3 28 174.7 28.4C175.1 28.8 175.4 29.3 175.7 29.9C175.9 30.5 176.1 31.2 176.1 31.9C176.1 32.9 175.9 33.8 175.4 34.6C175 35.3 174.3 35.9 173.5 36.3L176.3 43.5H173.3V43.5ZM173.4 31.9C173.4 31.1 173.2 30.6 172.8 30.2C172.4 29.8 171.8 29.7 171.1 29.7H168.7V34.3H171C171.7 34.3 172.3 34.1 172.7 33.7C173.2 33.3 173.4 32.7 173.4 31.9Z" fill="black"/>
<path d="M196.4 38.6C196.4 39.4 196.3 40.1 196 40.7C195.8 41.3 195.4 41.9 195 42.3C194.6 42.7 194 43.1 193.4 43.3C192.8 43.5 192.1 43.7 191.4 43.7C190.5 43.7 189.7 43.6 189.1 43.3C188.5 43 187.9 42.6 187.5 42.1C187.1 41.6 186.8 41 186.6 40.4C186.4 39.8 186.3 39.1 186.3 38.4V32.3C186.3 31.7 186.4 31.1 186.6 30.5C186.8 29.9 187.1 29.4 187.5 28.9C187.9 28.4 188.4 28 189 27.7C189.6 27.4 190.4 27.2 191.3 27.2C192.2 27.2 192.9 27.3 193.5 27.6C194.1 27.9 194.6 28.3 195.1 28.8C195.5 29.3 195.8 29.8 196 30.4C196.2 31 196.3 31.6 196.3 32.2V38.6H196.4ZM193.7 32.1C193.7 31.9 193.7 31.7 193.6 31.4C193.5 31.1 193.4 30.9 193.2 30.6C193 30.4 192.8 30.1 192.5 30C192.2 29.8 191.8 29.7 191.4 29.7C191 29.7 190.6 29.8 190.3 29.9C190 30.1 189.8 30.3 189.6 30.5C189.4 30.7 189.3 31 189.2 31.3C189.1 31.6 189.1 31.8 189.1 32.1V38.3C189.1 39.1 189.3 39.7 189.6 40.3C190 40.8 190.6 41.1 191.4 41.1C192 41.1 192.5 40.9 193 40.5C193.4 40.1 193.7 39.5 193.7 38.8V32.1V32.1Z" fill="black"/>
<path d="M210 29.7V34.1H215.5V36.5H210V43.4H207.3V27.2H216.3V29.7H210Z" fill="black"/>
<path d="M226.6 43.5V27.2H229.3V43.5H226.6Z" fill="black"/>
<path d="M245.5 29.6V43.4H242.8V29.6H239.2V27.2H249V29.6H245.5Z" fill="black"/>
<path d="M117.6 64.8V58.1L115.3 63H114.2L111.8 58.1V64.8H110.3V54.8H111.8L114.7 61L117.6 54.8H119.1V64.8H117.6Z" fill="black"/>
<path d="M122.6 61.7C122.6 62.9 123.2 63.7 124.4 63.7C125.2 63.7 125.6 63.5 126.1 63L127 63.9C126.3 64.6 125.6 65 124.3 65C122.5 65 121.1 64.1 121.1 61.3C121.1 59 122.3 57.7 124.1 57.7C126 57.7 127.1 59.1 127.1 61.1V61.7H122.6ZM125.6 59.7C125.4 59.2 124.9 58.8 124.2 58.8C123.5 58.8 123 59.2 122.8 59.7C122.7 60 122.6 60.2 122.6 60.7H125.8C125.8 60.3 125.7 60.1 125.6 59.7Z" fill="black"/>
<path d="M133.2 64.8V64C132.7 64.6 132.1 64.8 131.3 64.8C130.6 64.8 130 64.6 129.6 64.2C128.9 63.5 128.8 62.3 128.8 61.2C128.8 60.1 128.9 58.9 129.6 58.2C130 57.8 130.6 57.6 131.3 57.6C132.1 57.6 132.6 57.8 133.2 58.4V54.8H134.6V64.8H133.2V64.8ZM131.7 58.9C130.4 58.9 130.2 60 130.2 61.3C130.2 62.6 130.4 63.7 131.7 63.7C133 63.7 133.2 62.6 133.2 61.3C133.2 60 133 58.9 131.7 58.9Z" fill="black"/>
<path d="M136.8 56.3V54.8H138.3V56.3H136.8ZM136.9 64.8V57.7H138.3V64.8H136.9Z" fill="black"/>
<path d="M144.4 64.8V64.2C143.9 64.7 143.4 64.9 142.5 64.9C141.6 64.9 141 64.7 140.6 64.3C140.2 63.9 140 63.4 140 62.8C140 61.6 140.8 60.7 142.5 60.7H144.4V60.2C144.4 59.3 144 58.9 142.8 58.9C142 58.9 141.6 59.1 141.2 59.6L140.3 58.7C141 57.9 141.7 57.7 142.9 57.7C144.9 57.7 145.8 58.5 145.8 60.1V64.9H144.4V64.8ZM144.4 61.7H142.7C141.9 61.7 141.4 62.1 141.4 62.7C141.4 63.3 141.8 63.7 142.7 63.7C143.2 63.7 143.7 63.7 144 63.3C144.2 63.1 144.3 62.8 144.3 62.2V61.7H144.4Z" fill="black"/>
<path d="M156.4 64.3C156 64.7 155.4 64.9 154.7 64.9C153.9 64.9 153.4 64.7 152.8 64.1V64.9H151.4V54.9H152.8V58.5C153.3 57.9 153.9 57.7 154.7 57.7C155.4 57.7 156 57.9 156.4 58.3C157.1 59 157.2 60.2 157.2 61.3C157.2 62.4 157.1 63.6 156.4 64.3ZM154.3 58.9C153 58.9 152.8 60 152.8 61.3C152.8 62.6 153 63.7 154.3 63.7C155.6 63.7 155.8 62.6 155.8 61.3C155.8 60 155.6 58.9 154.3 58.9Z" fill="black"/>
<path d="M163.5 64.8V64.1C163 64.6 162.3 64.9 161.6 64.9C160.9 64.9 160.3 64.7 159.8 64.3C159.3 63.8 159.1 63.1 159.1 62.3V57.7H160.5V62C160.5 63.1 161.1 63.6 161.9 63.6C162.7 63.6 163.4 63.1 163.4 62V57.7H164.8V64.8H163.5Z" fill="black"/>
<path d="M169.4 66.3C169.3 66.7 169.1 67 168.9 67.2C168.5 67.6 168 67.7 167.4 67.7H166.8V66.4H167.2C167.8 66.4 168 66.2 168.2 65.6L168.6 64.5L166.1 57.7H167.6L169.3 62.7L171 57.7H172.5L169.4 66.3Z" fill="black"/>
<path d="M173.7 56.3V54.8H175.2V56.3H173.7ZM173.7 64.8V57.7H175.1V64.8H173.7Z" fill="black"/>
<path d="M181.8 64.8V60.5C181.8 59.4 181.2 58.9 180.4 58.9C179.6 58.9 178.9 59.4 178.9 60.5V64.8H177.5V57.7H178.9V58.4C179.4 57.9 180.1 57.6 180.8 57.6C181.5 57.6 182.1 57.8 182.6 58.2C183.1 58.7 183.3 59.4 183.3 60.2V64.8H181.8Z" fill="black"/>
<path d="M187.8 67.8C186.7 67.8 186 67.5 185.3 66.9L186.2 66C186.6 66.4 187 66.6 187.7 66.6C188.9 66.6 189.4 65.7 189.4 64.8V63.9C188.9 64.5 188.3 64.7 187.6 64.7C186.9 64.7 186.3 64.5 185.9 64.1C185.2 63.4 185.1 62.4 185.1 61.2C185.1 60 185.2 59 185.9 58.3C186.3 57.9 186.9 57.7 187.6 57.7C188.4 57.7 188.9 57.9 189.5 58.5V57.7H190.9V64.8C190.9 66.5 189.7 67.8 187.8 67.8ZM188 58.9C186.7 58.9 186.5 60 186.5 61.1C186.5 62.2 186.7 63.3 188 63.3C189.3 63.3 189.4 62.2 189.4 61.1C189.4 60 189.3 58.9 188 58.9Z" fill="black"/>
<path d="M201.5 64.3C201.1 64.7 200.5 64.9 199.8 64.9C199 64.9 198.5 64.7 197.9 64.1V67.7H196.5V57.7H197.9V58.5C198.4 57.9 199 57.7 199.8 57.7C200.5 57.7 201.1 57.9 201.5 58.3C202.2 59 202.3 60.2 202.3 61.3C202.3 62.4 202.3 63.6 201.5 64.3ZM199.4 58.9C198.1 58.9 197.9 60 197.9 61.3C197.9 62.6 198.1 63.7 199.4 63.7C200.7 63.7 200.9 62.6 200.9 61.3C200.9 60 200.7 58.9 199.4 58.9Z" fill="black"/>
<path d="M206.2 64.8C204.8 64.8 204.2 63.9 204.2 62.8V54.8H205.6V62.7C205.6 63.2 205.8 63.5 206.4 63.5H207V64.7H206.2V64.8Z" fill="black"/>
<path d="M212.5 64.8V64.2C212 64.7 211.5 64.9 210.6 64.9C209.7 64.9 209.1 64.7 208.7 64.3C208.3 63.9 208.1 63.4 208.1 62.8C208.1 61.6 208.9 60.7 210.6 60.7H212.5V60.2C212.5 59.3 212.1 58.9 210.9 58.9C210.1 58.9 209.7 59.1 209.3 59.6L208.4 58.7C209.1 57.9 209.8 57.7 211 57.7C213 57.7 213.9 58.5 213.9 60.1V64.9H212.5V64.8ZM212.5 61.7H210.8C210 61.7 209.5 62.1 209.5 62.7C209.5 63.3 209.9 63.7 210.8 63.7C211.3 63.7 211.8 63.7 212.1 63.3C212.3 63.1 212.4 62.8 212.4 62.2V61.7H212.5Z" fill="black"/>
<path d="M218.2 64.8C216.9 64.8 216.2 63.8 216.2 62.8V58.9H215.4V57.8H216.2V55.6H217.6V57.8H219V58.9H217.6V62.7C217.6 63.2 217.9 63.5 218.4 63.5H219V64.7H218.2V64.8Z" fill="black"/>
<path d="M222.6 58.9V64.8H221.2V58.9H220.4V57.8H221.2V56.7C221.2 55.7 221.8 54.7 223.2 54.7H224.1V56H223.5C223 56 222.7 56.3 222.7 56.8V57.8H224.1V58.9H222.6V58.9Z" fill="black"/>
<path d="M230 64.1C229.5 64.6 228.8 64.9 227.9 64.9C226.9 64.9 226.2 64.5 225.8 64.1C225.1 63.4 225 62.5 225 61.3C225 60.1 225.2 59.2 225.8 58.5C226.3 58 227 57.7 227.9 57.7C228.9 57.7 229.6 58.1 230 58.5C230.7 59.2 230.8 60.1 230.8 61.3C230.9 62.5 230.7 63.4 230 64.1ZM229 59.3C228.7 59 228.4 58.9 227.9 58.9C227.5 58.9 227.1 59 226.9 59.3C226.5 59.7 226.4 60.5 226.4 61.3C226.4 62.1 226.5 62.8 226.9 63.3C227.2 63.6 227.5 63.7 227.9 63.7C228.3 63.7 228.7 63.5 229 63.3C229.4 62.9 229.5 62.1 229.5 61.3C229.5 60.5 229.4 59.8 229 59.3Z" fill="black"/>
<path d="M236.7 59.4C236.4 59.1 236.1 58.9 235.6 58.9C234.8 58.9 234.2 59.5 234.2 60.5V64.8H232.8V57.7H234.2V58.5C234.6 58 235.3 57.6 236.1 57.6C236.8 57.6 237.3 57.8 237.8 58.3L236.7 59.4Z" fill="black"/>
<path d="M247.7 64.8V60.5C247.7 59.4 247.1 58.9 246.3 58.9C245.5 58.9 244.8 59.4 244.8 60.4V64.8H243.4V60.5C243.4 59.4 242.8 58.9 242 58.9C241.2 58.9 240.5 59.4 240.5 60.5V64.8H239V57.7H240.4V58.4C240.9 57.9 241.6 57.6 242.3 57.6C243.2 57.6 243.9 58 244.3 58.6C244.9 57.9 245.6 57.6 246.5 57.6C247.2 57.6 247.9 57.8 248.3 58.2C248.8 58.7 249.1 59.4 249.1 60.2V64.8H247.7V64.8Z" fill="black"/>
</svg>
